<svg width="24" height="24" viewBox="0 0 24 24" fill="none" xmlns="http://www.w3.org/2000/svg">
<path d="M8.2 21H4.5C4.1 21 3.75 20.85 3.45 20.55C3.15 20.25 3 19.9 3 19.5V12C3 10.75 3.2375 9.57917 3.7125 8.4875C4.1875 7.39583 4.82917 6.44583 5.6375 5.6375C6.44583 4.82917 7.39583 4.1875 8.4875 3.7125C9.57917 3.2375 10.75 3 12 3C13.25 3 14.4208 3.2375 15.5125 3.7125C16.6042 4.1875 17.5542 4.82917 18.3625 5.6375C19.1708 6.44583 19.8125 7.39583 20.2875 8.4875C20.7625 9.57917 21 10.75 21 12V19.5C21 19.9 20.85 20.25 20.55 20.55C20.25 20.85 19.9 21 19.5 21H15.8V13.6H19.5V12C19.5 9.91067 18.7723 8.13833 17.317 6.683C15.8617 5.22767 14.0893 4.5 12 4.5C9.91067 4.5 8.13833 5.22767 6.683 6.683C5.22767 8.13833 4.5 9.91067 4.5 12V13.6H8.2V21ZM6.7 15.1H4.5V19.5H6.7V15.1ZM17.3 15.1V19.5H19.5V15.1H17.3Z" fill="white"/>
</svg>
