<svg width="10" height="14" viewBox="0 0 10 14" fill="none" xmlns="http://www.w3.org/2000/svg">
<path d="M4.16667 9.16965H5.83333V7.50298H7.5V5.83631H5.83333V4.16965H4.16667V5.83631H2.5V7.50298H4.16667V9.16965ZM5 13.3235C3.55811 12.9303 2.36433 12.0815 1.41867 10.7773C0.472889 9.47309 0 8.01498 0 6.40298V2.56715L5 0.695312L10 2.56715V6.40298C10 8.01498 9.52711 9.47309 8.58133 10.7773C7.63567 12.0815 6.44189 12.9303 5 13.3235ZM5 12.2696C6.15556 11.903 7.11111 11.1696 7.86667 10.0696C8.62222 8.96965 9 7.74743 9 6.40298V3.25298L5 1.75931L1 3.25298V6.40298C1 7.74743 1.37778 8.96965 2.13333 10.0696C2.88889 11.1696 3.84444 11.903 5 12.2696Z" fill="white"/>
</svg>
