<svg width="110" height="110" viewBox="0 0 110 110" fill="none" xmlns="http://www.w3.org/2000/svg">
<circle cx="55" cy="55" r="54" stroke="white" stroke-width="2" stroke-dasharray="4 4"/>
<path d="M78.6514 60.2439V75.6159H26.3782V45.9049C26.3782 44.3102 27.6664 43.0156 29.2627 43.0156H58.177" stroke="white" stroke-width="2" stroke-linecap="round" stroke-linejoin="round"/>
<path d="M83.0297 75.6172V76.6117C83.0297 78.4421 81.4547 79.9253 79.5117 79.9253H25.518C23.575 79.9253 22 78.4421 22 76.6117V75.6172H47.9184V76.0759C47.9184 76.8775 48.6074 77.5291 49.4591 77.5291H55.5663C56.418 77.5291 57.1071 76.8775 57.1071 76.0759V75.6172H83.0254H83.0297Z" stroke="white" stroke-width="2" stroke-linecap="round" stroke-linejoin="round"/>
<path d="M83.8728 54.6883C89.2825 49.2699 89.2825 40.4822 83.8728 35.0638C78.4632 29.6454 69.6896 29.6454 64.28 35.0638C59.3796 39.9721 58.9174 47.6452 62.8976 53.0765L61.8277 57.1445L65.8892 56.0729C71.3117 60.0595 78.9725 59.5965 83.8728 54.6883Z" stroke="white" stroke-width="2" stroke-linecap="round" stroke-linejoin="round"/>
<path d="M69.1245 51.2282V48.7891" stroke="white" stroke-width="2" stroke-linecap="round" stroke-linejoin="round"/>
<path d="M73.8879 51.2298V45.8672" stroke="white" stroke-width="2" stroke-linecap="round" stroke-linejoin="round"/>
<path d="M78.6514 51.2313V43.3438" stroke="white" stroke-width="2" stroke-linecap="round" stroke-linejoin="round"/>
<path d="M78.3261 38.1172L69.4456 42.6396" stroke="white" stroke-width="2" stroke-linecap="round" stroke-linejoin="round"/>
<path d="M76.4001 37.4844L78.326 38.1145L77.6969 40.0435" stroke="white" stroke-width="2" stroke-linecap="round" stroke-linejoin="round"/>
<path d="M48.4701 48.1953H41.798C40.6595 48.1953 39.7351 49.1212 39.7351 50.2615V55.4012C39.7351 57.4074 41.3571 59.0364 43.3644 59.0364C45.3673 59.0364 46.9936 57.4117 46.9936 55.4012V50.733C47.9651 50.5659 48.7526 49.8457 49.0222 48.9112C49.125 48.5554 48.8425 48.1996 48.4701 48.1996V48.1953Z" stroke="white" stroke-width="2" stroke-linecap="round" stroke-linejoin="round"/>
<path d="M46.9894 50.7288L44.9608 50.7031H44.4258C43.0905 50.7031 42.5427 51.7877 42.5427 53.1251V53.6095" stroke="white" stroke-width="2" stroke-linecap="round" stroke-linejoin="round"/>
<path d="M37.4626 65.9141V71.0281" stroke="white" stroke-width="2" stroke-linecap="round" stroke-linejoin="round"/>
<path d="M48.9966 65.9141V71.0281" stroke="white" stroke-width="2" stroke-linecap="round" stroke-linejoin="round"/>
<path d="M53.0838 71.0267V65.664C53.0838 64.4337 52.6558 63.242 51.8726 62.2947C50.8711 61.0815 49.3818 60.3828 47.8111 60.3828H46.7411L43.2274 65.4325L39.7137 60.3828H38.6438C37.0731 60.3828 35.5837 61.0858 34.5823 62.2947C33.7991 63.242 33.3711 64.4337 33.3711 65.664V71.0267" stroke="white" stroke-width="2" stroke-linecap="round" stroke-linejoin="round"/>
</svg>
