<svg width="60" height="50" viewBox="0 0 60 50" fill="none" xmlns="http://www.w3.org/2000/svg">
<path d="M42.6926 32.0545L54.2693 22.0545L59.0768 22.5028L46.5901 33.2653L50.2826 49.5545L46.2051 47.0795L42.6926 32.0545ZM36.3335 12.4003L33.0901 4.74614L34.936 0.195312L40.231 12.7653L36.3335 12.4003ZM15.5001 41.0861L26.0001 34.7528L36.5001 41.1695L33.7501 29.1695L43.0001 21.1695L30.8335 20.0861L26.0001 8.75281L21.1668 20.0028L9.00012 21.0861L18.2501 29.1695L15.5001 41.0861ZM10.4168 48.0795L14.5518 30.3678L0.807617 18.4645L18.9101 16.8936L26.0001 0.195312L33.0901 16.8936L51.1926 18.4645L37.4485 30.3678L41.5835 48.0795L26.0001 38.6761L10.4168 48.0795Z" fill="white"/>
</svg>
