<svg width="80" height="80" viewBox="0 0 80 80" fill="none" xmlns="http://www.w3.org/2000/svg">
<path d="M7.14051 44.7843C5.8844 42.6993 4.93579 40.5754 4.29467 38.4126C3.65356 36.2504 3.33301 34.1137 3.33301 32.0026C3.33301 26.8059 5.14495 22.3957 8.76884 18.7718C12.3927 15.1479 16.803 13.3359 21.9997 13.3359C25.3713 13.3359 28.6086 14.2109 31.7113 15.9609C34.8136 17.7109 37.5763 20.2334 39.9997 23.5284C42.423 20.2334 45.1858 17.7109 48.288 15.9609C51.3908 14.2109 54.628 13.3359 57.9997 13.3359C63.1964 13.3359 67.6066 15.1479 71.2305 18.7718C74.8544 22.3957 76.6664 26.8059 76.6664 32.0026C76.6664 34.0282 76.3458 36.1009 75.7047 38.2209C75.0636 40.3404 74.115 42.507 72.8588 44.7209C72.5111 44.2615 72.1005 43.8507 71.6272 43.4884C71.1533 43.1262 70.66 42.8232 70.1472 42.5793C71.2027 40.7032 71.9975 38.887 72.5313 37.1309C73.0658 35.3743 73.333 33.6648 73.333 32.0026C73.333 27.712 71.8502 24.0837 68.8847 21.1176C65.9186 18.152 62.2902 16.6693 57.9997 16.6693C54.568 16.6693 51.4516 17.7023 48.6505 19.7684C45.8488 21.8345 42.9652 24.8015 39.9997 28.6693C37.0341 24.7887 34.1505 21.8187 31.3488 19.7593C28.5477 17.6993 25.4313 16.6693 21.9997 16.6693C17.7091 16.6693 14.0808 18.152 11.1147 21.1176C8.14912 24.0837 6.66634 27.712 6.66634 32.0026C6.66634 33.7504 6.93356 35.5132 7.46801 37.2909C8.0019 39.0687 8.77523 40.8529 9.78801 42.6434C9.27523 42.9301 8.7944 43.2443 8.34551 43.5859C7.89718 43.9276 7.49551 44.327 7.14051 44.7843ZM3.33301 70.1309V67.2526C3.33301 65.1926 4.42079 63.4907 6.59634 62.1468C8.7719 60.8029 11.595 60.1309 15.0655 60.1309C15.7011 60.1309 16.3094 60.1554 16.8905 60.2043C17.4716 60.2537 18.0252 60.334 18.5513 60.4451C18.0725 61.2995 17.7027 62.197 17.4422 63.1376C17.1816 64.0782 17.0513 65.0801 17.0513 66.1434V70.1309H3.33301ZM23.333 70.1309V66.3809C23.333 63.6243 24.8741 61.434 27.9563 59.8101C31.038 58.1862 35.0583 57.3743 40.0172 57.3743C45.0227 57.3743 49.0488 58.1862 52.0955 59.8101C55.1427 61.434 56.6663 63.6243 56.6663 66.3809V70.1309H23.333ZM62.948 70.1309V66.1434C62.948 65.0801 62.8316 64.0782 62.5989 63.1376C62.3661 62.197 62.0169 61.2995 61.5513 60.4451C62.0769 60.334 62.6311 60.2537 63.2138 60.2043C63.7966 60.1554 64.3919 60.1309 64.9997 60.1309C68.4997 60.1309 71.3191 60.8029 73.458 62.1468C75.5969 63.4907 76.6664 65.1926 76.6664 67.2526V70.1309H62.948ZM39.9922 60.7076C36.2322 60.7076 33.113 61.2098 30.6347 62.2143C28.1558 63.2187 26.865 64.5115 26.7622 66.0926V66.7976H53.2563V66.0926C53.1408 64.5115 51.8575 63.2187 49.4063 62.2143C46.9558 61.2098 43.8177 60.7076 39.9922 60.7076ZM15.0638 56.9901C13.7594 56.9901 12.6427 56.5254 11.7138 55.5959C10.785 54.667 10.3205 53.5504 10.3205 52.2459C10.3205 50.9554 10.785 49.8529 11.7138 48.9384C12.6427 48.024 13.7594 47.5668 15.0638 47.5668C16.3544 47.5668 17.4677 48.024 18.4038 48.9384C19.3394 49.8529 19.8072 50.9554 19.8072 52.2459C19.8072 53.5504 19.3394 54.667 18.4038 55.5959C17.4677 56.5254 16.3544 56.9901 15.0638 56.9901ZM64.9997 56.9901C63.7219 56.9901 62.6119 56.5254 61.6697 55.5959C60.7275 54.667 60.2563 53.5504 60.2563 52.2459C60.2563 50.9554 60.7275 49.8529 61.6697 48.9384C62.6119 48.024 63.7261 47.5668 65.0122 47.5668C66.3372 47.5668 67.4569 48.024 68.3714 48.9384C69.2858 49.8529 69.743 50.9554 69.743 52.2459C69.743 53.5504 69.2886 54.667 68.3797 55.5959C67.4702 56.5254 66.3436 56.9901 64.9997 56.9901ZM40.0222 54.8743C37.9988 54.8743 36.2713 54.1637 34.8397 52.7426C33.408 51.3221 32.6922 49.5968 32.6922 47.5668C32.6922 45.4962 33.4025 43.7607 34.823 42.3601C36.2441 40.9596 37.9697 40.2593 39.9997 40.2593C42.0702 40.2593 43.8058 40.9573 45.2063 42.3534C46.6069 43.7495 47.3072 45.4798 47.3072 47.5443C47.3072 49.5676 46.6091 51.2951 45.213 52.7268C43.8169 54.1584 42.0866 54.8743 40.0222 54.8743ZM39.9997 43.5926C38.9269 43.5926 37.9963 43.9734 37.208 44.7351C36.4197 45.4968 36.0255 46.4407 36.0255 47.5668C36.0255 48.6395 36.4197 49.5701 37.208 50.3584C37.9963 51.1468 38.9375 51.5409 40.0313 51.5409C41.1258 51.5409 42.0563 51.1468 42.823 50.3584C43.5902 49.5701 43.9738 48.6287 43.9738 47.5343C43.9738 46.4404 43.593 45.5098 42.8313 44.7426C42.0697 43.9759 41.1258 43.5926 39.9997 43.5926Z" fill="white"/>
</svg>
