<svg width="100" height="100" viewBox="0 0 100 100" fill="none" xmlns="http://www.w3.org/2000/svg">
<path d="M90.1367 27.6993C88.8277 24.6684 86.9403 21.9218 84.5801 19.6133C82.2181 17.298 79.4332 15.458 76.3769 14.1934C73.2078 12.877 69.8087 12.2031 66.3769 12.211C61.5625 12.211 56.8652 13.5294 52.7832 16.0196C51.8066 16.6153 50.8789 17.2696 50 17.9825C49.1211 17.2696 48.1934 16.6153 47.2168 16.0196C43.1348 13.5294 38.4375 12.211 33.623 12.211C30.1562 12.211 26.7969 12.8751 23.623 14.1934C20.5566 15.463 17.793 17.2891 15.4199 19.6133C13.0566 21.9192 11.1687 24.6664 9.86328 27.6993C8.50586 30.8536 7.8125 34.2032 7.8125 37.6505C7.8125 40.9024 8.47656 44.2911 9.79492 47.7383C10.8984 50.6192 12.4805 53.6075 14.502 56.6251C17.7051 61.4005 22.1094 66.3809 27.5781 71.4298C36.6406 79.7989 45.6152 85.5801 45.9961 85.8145L48.3105 87.2989C49.3359 87.9532 50.6543 87.9532 51.6797 87.2989L53.9941 85.8145C54.375 85.5704 63.3398 79.7989 72.4121 71.4298C77.8809 66.3809 82.2852 61.4005 85.4883 56.6251C87.5098 53.6075 89.1016 50.6192 90.1953 47.7383C91.5137 44.2911 92.1777 40.9024 92.1777 37.6505C92.1875 34.2032 91.4941 30.8536 90.1367 27.6993ZM50 79.5743C50 79.5743 15.2344 57.2989 15.2344 37.6505C15.2344 27.6993 23.4668 19.6329 33.623 19.6329C40.7617 19.6329 46.9531 23.6173 50 29.4376C53.0469 23.6173 59.2383 19.6329 66.3769 19.6329C76.5332 19.6329 84.7656 27.6993 84.7656 37.6505C84.7656 57.2989 50 79.5743 50 79.5743Z" fill="#1890FF"/>
<path d="M66.377 19.625C59.2383 19.625 53.0469 23.6094 50 29.4297C46.9531 23.6094 40.7617 19.625 33.623 19.625C23.4668 19.625 15.2344 27.6914 15.2344 37.6426C15.2344 57.291 50 79.5664 50 79.5664C50 79.5664 84.7656 57.291 84.7656 37.6426C84.7656 27.6914 76.5332 19.625 66.377 19.625Z" fill="#E6F7FF"/>
</svg>
