<svg width="16" height="14" viewBox="0 0 16 14" fill="none" xmlns="http://www.w3.org/2000/svg">
<g filter="url(#filter0_d_3817_3562)">
<path d="M14 11.5231V1.36923C14 1.30934 13.9808 1.26017 13.9423 1.22173C13.9039 1.18328 13.8547 1.16406 13.7948 1.16406H2.20517C2.14528 1.16406 2.09611 1.18328 2.05767 1.22173C2.01922 1.26017 2 1.30934 2 1.36923V6.4974H1V1.36923C1 1.03778 1.118 0.754062 1.354 0.518062C1.59 0.282062 1.87372 0.164062 2.20517 0.164062H13.7948C14.1263 0.164062 14.41 0.282062 14.646 0.518062C14.882 0.754062 15 1.03778 15 1.36923V10.4012C15 10.691 14.9036 10.9429 14.7108 11.1569C14.5182 11.371 14.2812 11.4931 14 11.5231ZM6 7.12556C5.35833 7.12556 4.80906 6.89712 4.35217 6.44023C3.89517 5.98323 3.66667 5.4339 3.66667 4.79223C3.66667 4.15056 3.89517 3.60128 4.35217 3.1444C4.80906 2.6874 5.35833 2.4589 6 2.4589C6.64167 2.4589 7.19094 2.6874 7.64783 3.1444C8.10483 3.60128 8.33333 4.15056 8.33333 4.79223C8.33333 5.4339 8.10483 5.98323 7.64783 6.44023C7.19094 6.89712 6.64167 7.12556 6 7.12556ZM6 6.12556C6.36667 6.12556 6.68056 5.99501 6.94167 5.7339C7.20278 5.47278 7.33333 5.1589 7.33333 4.79223C7.33333 4.42556 7.20278 4.11167 6.94167 3.85056C6.68056 3.58945 6.36667 3.4589 6 3.4589C5.63333 3.4589 5.31944 3.58945 5.05833 3.85056C4.79722 4.11167 4.66667 4.42556 4.66667 4.79223C4.66667 5.1589 4.79722 5.47278 5.05833 5.7339C5.31944 5.99501 5.63333 6.12556 6 6.12556ZM1 12.2026V10.7204C1 10.394 1.08867 10.0916 1.266 9.8134C1.44333 9.53517 1.68033 9.32128 1.977 9.17173C2.63589 8.84873 3.30061 8.60645 3.97117 8.4449C4.64172 8.28334 5.318 8.20256 6 8.20256C6.682 8.20256 7.35828 8.28334 8.02883 8.4449C8.69939 8.60645 9.36411 8.84873 10.023 9.17173C10.3197 9.32128 10.5567 9.53517 10.734 9.8134C10.9113 10.0916 11 10.394 11 10.7204V12.2026H1ZM2 11.2026H10V10.7204C10 10.5854 9.96089 10.4604 9.88267 10.3454C9.80445 10.2305 9.69828 10.1367 9.56417 10.0641C8.98972 9.78117 8.40406 9.56684 7.80717 9.42106C7.21017 9.2754 6.60778 9.20256 6 9.20256C5.39222 9.20256 4.78983 9.2754 4.19283 9.42106C3.59594 9.56684 3.01028 9.78117 2.43583 10.0641C2.30172 10.1367 2.19556 10.2305 2.11733 10.3454C2.03911 10.4604 2 10.5854 2 10.7204V11.2026Z" fill="white"/>
</g>
<defs>
<filter id="filter0_d_3817_3562" x="-3" y="0.164062" width="22" height="20.0391" filterUnits="userSpaceOnUse" color-interpolation-filters="sRGB">
<feFlood flood-opacity="0" result="BackgroundImageFix"/>
<feColorMatrix in="SourceAlpha" type="matrix" values="0 0 0 0 0 0 0 0 0 0 0 0 0 0 0 0 0 0 127 0" result="hardAlpha"/>
<feOffset dy="4"/>
<feGaussianBlur stdDeviation="2"/>
<feComposite in2="hardAlpha" operator="out"/>
<feColorMatrix type="matrix" values="0 0 0 0 0 0 0 0 0 0 0 0 0 0 0 0 0 0 0.25 0"/>
<feBlend mode="normal" in2="BackgroundImageFix" result="effect1_dropShadow_3817_3562"/>
<feBlend mode="normal" in="SourceGraphic" in2="effect1_dropShadow_3817_3562" result="shape"/>
</filter>
</defs>
</svg>
