<svg width="16" height="16" viewBox="0 0 16 16" fill="none" xmlns="http://www.w3.org/2000/svg">
<path d="M6.63562 13.7243L5.11396 10.8757L2.25879 9.3475L3.21129 8.40517L5.57029 8.809L7.43696 6.94233L2.29462 4.75L3.45746 3.57317L9.70746 4.6615L11.7806 2.582C12.002 2.36067 12.2748 2.25 12.5991 2.25C12.9235 2.25 13.1963 2.36067 13.4178 2.582C13.6391 2.80344 13.7498 3.07461 13.7498 3.3955C13.7498 3.7165 13.6391 3.98767 13.4178 4.209L11.328 6.29233L12.4165 12.532L11.2433 13.7052L9.04729 8.56283L7.18062 10.4295L7.58829 12.7718L6.63562 13.7243Z" fill="white"/>
</svg>
