<svg width="16" height="16" viewBox="0 0 16 16" fill="none" xmlns="http://www.w3.org/2000/svg">
<path d="M9.1663 8.47546C8.70052 8.47546 8.3063 8.31413 7.98363 7.99146C7.66097 7.66879 7.49963 7.27457 7.49963 6.80879C7.49963 6.34301 7.66097 5.94879 7.98363 5.62612C8.3063 5.30346 8.70052 5.14213 9.1663 5.14213C9.63208 5.14213 10.0263 5.30346 10.349 5.62612C10.6716 5.94879 10.833 6.34301 10.833 6.80879C10.833 7.27457 10.6716 7.66879 10.349 7.99146C10.0263 8.31413 9.63208 8.47546 9.1663 8.47546ZM4.7688 10.5396C4.43747 10.5396 4.1538 10.4216 3.9178 10.1856C3.6818 9.94963 3.5638 9.6659 3.5638 9.33446V4.28312C3.5638 3.95179 3.6818 3.66812 3.9178 3.43212C4.1538 3.19612 4.43747 3.07812 4.7688 3.07812H13.5636C13.8951 3.07812 14.1788 3.19612 14.4148 3.43212C14.6508 3.66812 14.7688 3.95179 14.7688 4.28312V9.33446C14.7688 9.6659 14.6508 9.94963 14.4148 10.1856C14.1788 10.4216 13.8951 10.5396 13.5636 10.5396H4.7688ZM5.7688 9.53962H12.5638C12.5638 9.20718 12.6818 8.92318 12.9178 8.68762C13.1538 8.45218 13.4375 8.33446 13.7688 8.33446V5.28312C13.4364 5.28312 13.1524 5.16512 12.917 4.92912C12.6815 4.69312 12.5638 4.40946 12.5638 4.07812H5.7688C5.7688 4.41057 5.6508 4.69451 5.4148 4.92996C5.1788 5.1654 4.89514 5.28312 4.5638 5.28312V8.33446C4.89625 8.33446 5.18019 8.45246 5.41564 8.68846C5.65108 8.92446 5.7688 9.20818 5.7688 9.53962ZM12.7816 12.873H2.43564C2.10419 12.873 1.82047 12.755 1.58447 12.519C1.34847 12.283 1.23047 11.9992 1.23047 11.6678V5.06529H2.23047V11.6678C2.23047 11.719 2.2518 11.766 2.29447 11.8088C2.33725 11.8516 2.3843 11.873 2.43564 11.873H12.7816V12.873ZM4.7688 9.53962H4.5638V4.07812H4.7688C4.71325 4.07812 4.66519 4.0984 4.62464 4.13896C4.58408 4.17951 4.5638 4.22757 4.5638 4.28312V9.33446C4.5638 9.39001 4.58408 9.43807 4.62464 9.47862C4.66519 9.51929 4.71325 9.53962 4.7688 9.53962Z" fill="white"/>
</svg>
