<svg width="73" height="90" viewBox="0 0 73 90" fill="none" xmlns="http://www.w3.org/2000/svg">
<path d="M71.1582 11.5918L37.9746 0.283203C37.5742 0.146484 37.0371 0.078125 36.5 0.078125C35.9629 0.078125 35.4258 0.146484 35.0254 0.283203L1.8418 11.5918C1.03125 11.8652 0.367188 12.8027 0.367188 13.6621V60.7715C0.367188 61.6309 0.923829 62.7637 1.59766 63.3008L35.2598 89.5312C35.6016 89.7949 36.041 89.9316 36.4902 89.9316C36.9395 89.9316 37.3887 89.7949 37.7207 89.5312L71.3828 63.3008C72.0566 62.7734 72.6133 61.6406 72.6133 60.7715V13.6621C72.6328 12.8027 71.9688 11.875 71.1582 11.5918ZM65.6016 58.8965L36.5 81.5723L7.39844 58.8965V17.1387L36.5 7.2168L65.6016 17.1387V58.8965Z" fill="#1890FF"/>
<path d="M25.9727 39.2676C25.6798 38.8672 25.211 38.623 24.7032 38.623H19.3126C18.6778 38.623 18.3067 39.3457 18.6778 39.8633L31.0216 56.8555C31.1675 57.0552 31.3586 57.2178 31.5792 57.3298C31.7998 57.4418 32.0437 57.5002 32.2911 57.5002C32.5385 57.5002 32.7824 57.4418 33.003 57.3298C33.2236 57.2178 33.4147 57.0552 33.5606 56.8555L54.3223 28.2715C54.6934 27.7539 54.3223 27.0312 53.6876 27.0312H48.297C47.7989 27.0312 47.3204 27.2754 47.0274 27.6758L32.2911 47.9688L25.9727 39.2676Z" fill="#1890FF"/>
</svg>
