<svg width="110" height="110" viewBox="0 0 110 110" fill="none" xmlns="http://www.w3.org/2000/svg">
<circle cx="55" cy="55" r="54" stroke="white" stroke-width="2" stroke-dasharray="4 4"/>
<path d="M52.7998 79.5862H35V31H43.8128H61.7188" stroke="white" stroke-width="2" stroke-linecap="round" stroke-linejoin="round"/>
<path d="M70.5952 39.8047V61.5539" stroke="white" stroke-width="2" stroke-linecap="round" stroke-linejoin="round"/>
<path d="M70.5953 39.8025H61.7188V31L70.5953 39.8025Z" stroke="white" stroke-width="2" stroke-linecap="round" stroke-linejoin="round"/>
<path d="M74.9595 67.8528C74.9595 68.99 71.0502 69.9165 66.2274 69.9165C61.4046 69.9165 57.4954 68.9942 57.4954 67.8528C57.4954 66.7114 61.4046 65.7891 66.2274 65.7891C71.0502 65.7891 74.9595 66.7114 74.9595 67.8528Z" stroke="white" stroke-width="2" stroke-linecap="round" stroke-linejoin="round"/>
<path d="M86.4917 76.5325C86.4917 77.6696 82.5825 78.5962 77.7596 78.5962C72.9368 78.5962 69.0276 77.6739 69.0276 76.5325C69.0276 75.3911 72.9368 74.4688 77.7596 74.4688C82.5825 74.4688 86.4917 75.3911 86.4917 76.5325Z" stroke="white" stroke-width="2" stroke-linecap="round" stroke-linejoin="round"/>
<path d="M66.2402 73.6262H66.2274C64.8422 73.6262 63.5334 73.5504 62.3734 73.4156C59.484 73.0787 57.4954 72.3754 57.4954 71.5625" stroke="white" stroke-width="2" stroke-linecap="round" stroke-linejoin="round"/>
<path d="M74.9637 71.5625C74.9637 71.6004 74.9594 71.6383 74.9509 71.672" stroke="white" stroke-width="2" stroke-linecap="round" stroke-linejoin="round"/>
<path d="M66.2274 77.3294C64.8422 77.3294 63.5334 77.2535 62.3734 77.1188C59.484 76.7818 57.4954 76.0785 57.4954 75.2656" stroke="white" stroke-width="2" stroke-linecap="round" stroke-linejoin="round"/>
<path d="M57.4954 78.9609C57.4954 80.1023 61.4046 81.0247 66.2274 81.0247" stroke="white" stroke-width="2" stroke-linecap="round" stroke-linejoin="round"/>
<path d="M86.4918 80.1641C86.4961 80.1893 86.4961 80.2146 86.4961 80.2399C86.4961 80.2525 86.4961 80.2609 86.4918 80.2736C86.4408 81.0738 84.465 81.7603 81.618 82.093C80.4537 82.2278 79.145 82.3036 77.7597 82.3036C76.3745 82.3036 75.0658 82.2278 73.9057 82.093C71.0163 81.7561 69.0234 81.0527 69.0234 80.2399" stroke="white" stroke-width="2" stroke-linecap="round" stroke-linejoin="round"/>
<path d="M57.4912 67.8516V78.9578" stroke="white" stroke-width="2" stroke-linecap="round" stroke-linejoin="round"/>
<path d="M74.9639 67.8516V71.5536V71.6632" stroke="white" stroke-width="2" stroke-linecap="round" stroke-linejoin="round"/>
<path d="M86.4919 76.5312V84.0407" stroke="white" stroke-width="2" stroke-linecap="round" stroke-linejoin="round"/>
<path d="M69.0234 76.5312V83.9354C69.0234 85.0768 72.9369 85.9992 77.7597 85.9992C82.5826 85.9992 86.4196 85.0936 86.4918 83.9691C86.4961 83.9565 86.4961 83.9481 86.4961 83.9354C86.4961 83.9102 86.4961 83.8849 86.4918 83.8596" stroke="white" stroke-width="2" stroke-linecap="round" stroke-linejoin="round"/>
<path d="M40.0522 62.1701L50.2418 52.0662L55.6595 57.4361L64.7655 48.4062" stroke="white" stroke-width="2" stroke-linecap="round" stroke-linejoin="round"/>
<path d="M60.1382 48.4062H64.7655V52.997" stroke="white" stroke-width="2" stroke-linecap="round" stroke-linejoin="round"/>
<path d="M40.0522 67.8516V73.4068" stroke="white" stroke-width="2" stroke-linecap="round" stroke-linejoin="round"/>
<path d="M45.6527 42.8516H40.0522" stroke="white" stroke-width="2" stroke-linecap="round" stroke-linejoin="round"/>
<path d="M45.6531 65.125V73.4136" stroke="white" stroke-width="2" stroke-linecap="round" stroke-linejoin="round"/>
<path d="M51.2534 61.5469V73.4112" stroke="white" stroke-width="2" stroke-linecap="round" stroke-linejoin="round"/>
</svg>
