<svg width="16" height="16" viewBox="0 0 16 16" fill="none" xmlns="http://www.w3.org/2000/svg">
<path d="M8.00033 14.3307C7.13199 14.3307 6.31255 14.1643 5.54199 13.8314C4.77144 13.4985 4.09944 13.0453 3.52599 12.4717C2.95244 11.8983 2.49921 11.2263 2.16633 10.4557C1.83344 9.68517 1.66699 8.86573 1.66699 7.9974C1.66699 7.12217 1.83344 6.30101 2.16633 5.5339C2.49921 4.76678 2.95244 4.09651 3.52599 3.52306C4.09944 2.94951 4.77144 2.49629 5.54199 2.1634C6.31255 1.83051 7.13199 1.66406 8.00033 1.66406C8.87555 1.66406 9.69671 1.83051 10.4638 2.1634C11.2309 2.49629 11.9012 2.94951 12.4747 3.52306C13.0482 4.09651 13.5014 4.76678 13.8343 5.5339C14.1672 6.30101 14.3337 7.12217 14.3337 7.9974C14.3337 8.86573 14.1672 9.68517 13.8343 10.4557C13.5014 11.2263 13.0482 11.8983 12.4747 12.4717C11.9012 13.0453 11.2309 13.4985 10.4638 13.8314C9.69671 14.1643 8.87555 14.3307 8.00033 14.3307ZM8.00033 13.3166C8.34055 12.8653 8.62688 12.4102 8.85932 11.9512C9.09177 11.4922 9.2811 10.9905 9.42732 10.4461H6.57333C6.7281 11.0076 6.9196 11.5179 7.14783 11.9769C7.37594 12.4359 7.6601 12.8825 8.00033 13.3166ZM6.70933 13.1332C6.45377 12.7666 6.22427 12.3497 6.02083 11.8827C5.81738 11.4156 5.65927 10.9367 5.54649 10.4461H3.28499C3.6371 11.1384 4.10933 11.7201 4.70166 12.1911C5.29399 12.662 5.96321 12.976 6.70933 13.1332ZM9.29133 13.1332C10.0374 12.976 10.7067 12.662 11.299 12.1911C11.8913 11.7201 12.3635 11.1384 12.7157 10.4461H10.4542C10.3199 10.941 10.1511 11.422 9.94766 11.8891C9.74433 12.3562 9.52555 12.7709 9.29133 13.1332ZM2.86566 9.44606H5.34399C5.3021 9.19828 5.27171 8.95534 5.25283 8.71723C5.23405 8.47923 5.22466 8.23928 5.22466 7.9974C5.22466 7.75551 5.23405 7.51556 5.25283 7.27756C5.27171 7.03945 5.3021 6.79651 5.34399 6.54873H2.86566C2.80155 6.77517 2.75244 7.01062 2.71833 7.25506C2.6841 7.49951 2.66699 7.74695 2.66699 7.9974C2.66699 8.24784 2.6841 8.49528 2.71833 8.73973C2.75244 8.98417 2.80155 9.21962 2.86566 9.44606ZM6.34382 9.44606H9.65683C9.6986 9.19828 9.72894 8.95751 9.74782 8.72373C9.7666 8.48995 9.77599 8.24784 9.77599 7.9974C9.77599 7.74695 9.7666 7.50484 9.74782 7.27106C9.72894 7.03728 9.6986 6.79651 9.65683 6.54873H6.34382C6.30205 6.79651 6.27171 7.03728 6.25283 7.27106C6.23405 7.50484 6.22466 7.74695 6.22466 7.9974C6.22466 8.24784 6.23405 8.48995 6.25283 8.72373C6.27171 8.95751 6.30205 9.19828 6.34382 9.44606ZM10.6567 9.44606H13.135C13.1991 9.21962 13.2482 8.98417 13.2823 8.73973C13.3165 8.49528 13.3337 8.24784 13.3337 7.9974C13.3337 7.74695 13.3165 7.49951 13.2823 7.25506C13.2482 7.01062 13.1991 6.77517 13.135 6.54873H10.6567C10.6985 6.79651 10.7289 7.03945 10.7478 7.27756C10.7666 7.51556 10.776 7.75551 10.776 7.9974C10.776 8.23928 10.7666 8.47923 10.7478 8.71723C10.7289 8.95534 10.6985 9.19828 10.6567 9.44606ZM10.4542 5.54873H12.7157C12.3593 4.84784 11.8903 4.26617 11.3087 3.80373C10.727 3.3414 10.0545 3.02517 9.29133 2.85506C9.54688 3.24306 9.77421 3.66745 9.97332 4.12823C10.1725 4.5889 10.3328 5.0624 10.4542 5.54873ZM6.57333 5.54873H9.42732C9.27255 4.9914 9.07788 4.4779 8.84333 4.00823C8.60866 3.53856 8.32766 3.09523 8.00033 2.67823C7.67299 3.09523 7.39199 3.53856 7.15733 4.00823C6.92277 4.4779 6.7281 4.9914 6.57333 5.54873ZM3.28499 5.54873H5.54649C5.66783 5.0624 5.8281 4.5889 6.02733 4.12823C6.22644 3.66745 6.45377 3.24306 6.70933 2.85506C5.94177 3.02517 5.26827 3.34251 4.68883 3.80706C4.10927 4.27151 3.64133 4.85206 3.28499 5.54873Z" fill="white"/>
</svg>
