<svg width="16" height="16" viewBox="0 0 16 16" fill="none" xmlns="http://www.w3.org/2000/svg">
<path d="M12.9831 13.691L8.85231 9.57296L9.55498 8.87046L13.6856 13.0011L12.9831 13.691ZM3.97281 13.0448C3.41303 12.4337 2.9977 11.7563 2.72681 11.0126C2.45581 10.2691 2.32031 9.51096 2.32031 8.73829C2.32031 7.91018 2.47398 7.10529 2.78131 6.32362C3.08853 5.54196 3.55837 4.83707 4.19081 4.20896C4.82337 3.5764 5.53215 3.10479 6.31715 2.79412C7.10215 2.48346 7.90448 2.32812 8.72415 2.32812C9.50104 2.32812 10.2585 2.46529 10.9966 2.73963C11.7346 3.01396 12.4113 3.43107 13.0266 3.99096L3.97281 13.0448ZM4.08065 11.5115L5.13448 10.4576C4.9567 10.2157 4.78403 9.96401 4.61648 9.70246C4.44892 9.4409 4.29848 9.17079 4.16515 8.89212C4.03181 8.61357 3.92053 8.32535 3.83131 8.02746C3.74198 7.72957 3.67548 7.42762 3.63181 7.12162C3.36859 7.85418 3.27909 8.60268 3.36331 9.36712C3.44742 10.1317 3.68654 10.8465 4.08065 11.5115ZM5.87031 9.75512L9.73698 5.85496C9.2592 5.48829 8.77542 5.19535 8.28565 4.97613C7.79598 4.7569 7.3347 4.60885 6.90181 4.53196C6.46881 4.45507 6.07753 4.44868 5.72798 4.51279C5.37842 4.5769 5.10709 4.70551 4.91398 4.89862C4.72076 5.09862 4.59209 5.3734 4.52798 5.72296C4.46387 6.07251 4.4692 6.46546 4.54398 6.90179C4.61876 7.33812 4.76576 7.80051 4.98498 8.28896C5.20431 8.77751 5.49942 9.26624 5.87031 9.75512ZM10.4523 5.15246L11.5268 4.09862C10.8438 3.69174 10.119 3.44774 9.35231 3.36662C8.58565 3.2854 7.83609 3.37557 7.10365 3.63712C7.42076 3.67646 7.72826 3.7429 8.02615 3.83646C8.32392 3.93001 8.61215 4.04179 8.89081 4.17179C9.16948 4.30168 9.43892 4.45035 9.69915 4.61779C9.95937 4.78535 10.2104 4.96357 10.4523 5.15246Z" fill="white"/>
</svg>
