<svg width="110" height="110" viewBox="0 0 110 110" fill="none" xmlns="http://www.w3.org/2000/svg">
<circle cx="55" cy="55" r="54" stroke="white" stroke-width="2" stroke-dasharray="4 4"/>
<path d="M31.5435 58.7601L36.7387 53.8985C40.7202 50.1698 46.223 48.5254 51.5885 49.4603C54.6913 49.9993 57.8271 50.2853 60.9739 50.3293L64.1372 50.3677C67.5421 50.4117 69.8706 53.8215 68.6734 57.0112C68.4867 57.5062 68.1792 57.9297 67.7838 58.2542C67.3883 58.5731 66.9161 58.7931 66.3888 58.8756L65.9056 58.9471C60.628 59.772 55.2515 59.8215 49.9574 59.0956" stroke="white" stroke-width="2" stroke-linecap="round" stroke-linejoin="round"/>
<path d="M68.8216 54.0142C72.913 53.0023 76.9769 51.8749 81.1013 51.0554C82.9575 50.6869 86.0439 49.6145 87.7957 50.3955C89.4268 51.1214 90.3384 53.2828 89.4488 54.9656C88.6415 56.4945 86.9994 57.4349 85.6814 58.4194C84.0119 59.6678 82.3094 60.8612 80.5631 61.9941C73.1107 66.8447 64.6424 71.3984 55.6413 70.7439C50.3253 70.3535 45.2838 68.8796 39.9897 70.139" stroke="white" stroke-width="2" stroke-linecap="round" stroke-linejoin="round"/>
<path d="M34.7615 82L20 62.1244L26.2662 57.4573C27.7953 56.3184 29.9545 56.6362 31.0918 58.1675L41.7368 72.5005C42.8741 74.0317 42.5568 76.194 41.0277 77.3329L34.7615 82Z" stroke="white" stroke-width="2" stroke-linecap="round" stroke-linejoin="round"/>
<path d="M67.3775 51.6491C71.3206 49.3778 73.9786 45.1046 73.9786 40.21C73.9786 32.9176 68.0749 27 60.7928 27C53.5107 27 47.6016 32.9176 47.6016 40.21C47.6016 43.7957 49.0294 47.046 51.3415 49.4273" stroke="white" stroke-width="2" stroke-linecap="round" stroke-linejoin="round"/>
<path d="M54.9441 46.0625L66.6361 34.3594" stroke="white" stroke-width="2" stroke-linecap="round" stroke-linejoin="round"/>
<path d="M64.9006 47.2784C66.5263 47.2784 67.8442 45.9586 67.8442 44.3306C67.8442 42.7026 66.5263 41.3828 64.9006 41.3828C63.2749 41.3828 61.957 42.7026 61.957 44.3306C61.957 45.9586 63.2749 47.2784 64.9006 47.2784Z" stroke="white" stroke-width="2" stroke-linecap="round" stroke-linejoin="round"/>
<path d="M54.5924 34.0027C55.7402 32.8533 57.6074 32.8533 58.7607 34.0027C59.9084 35.1521 59.9084 37.022 58.7607 38.1769C57.6129 39.3318 55.7457 39.3263 54.5924 38.1769C53.4391 37.0275 53.4446 35.1576 54.5924 34.0027Z" stroke="white" stroke-width="2" stroke-linecap="round" stroke-linejoin="round"/>
</svg>
