<svg width="30" height="30" viewBox="0 0 30 30" fill="none" xmlns="http://www.w3.org/2000/svg">
<path d="M29.0449 21.634C29.0324 21.599 29.013 21.5669 28.988 21.5395C28.9629 21.512 28.9327 21.4898 28.899 21.4741C28.8654 21.4585 28.8289 21.4496 28.7918 21.4481C28.7547 21.4465 28.7177 21.4524 28.6828 21.4652L26.5312 22.2492V3.32812C26.5312 2.00625 25.4625 0.9375 24.1406 0.9375H5.85938C4.5375 0.9375 3.46875 2.00625 3.46875 3.32812V22.2492L1.31367 21.4652C1.28203 21.4547 1.25039 21.4477 1.21875 21.4477C1.06406 21.4477 0.9375 21.5742 0.9375 21.7289V23.8242C0.9375 23.9402 1.01133 24.0457 1.12383 24.0879L14.6133 28.9957C14.8629 29.0871 15.1336 29.0871 15.3832 28.9957L28.8762 24.0914C28.9887 24.0492 29.0625 23.9437 29.0625 23.8277V21.7324C29.0625 21.6973 29.0555 21.6656 29.0449 21.634ZM24 23.1703L15 26.4434L6 23.1703V3.46875H24V23.1703Z" fill="#1890FF"/>
<path d="M13.1857 15.1195H11.1818C11.0271 15.1195 10.9005 15.2461 10.9005 15.4008V16.3535C10.9005 16.5082 11.0271 16.6348 11.1818 16.6348H13.8536V18.0059H11.1818C11.0271 18.0059 10.9005 18.1324 10.9005 18.2871V19.2398C10.9005 19.3945 11.0271 19.5211 11.1818 19.5211H13.8536V21.75C13.8536 21.9047 13.9802 22.0312 14.1349 22.0312H15.8892C16.0439 22.0312 16.1704 21.9047 16.1704 21.75V19.5176H18.8528C19.0075 19.5176 19.1341 19.391 19.1341 19.2363V18.2836C19.1341 18.1289 19.0075 18.0023 18.8528 18.0023H16.1704V16.6313H18.8528C19.0075 16.6313 19.1341 16.5047 19.1341 16.35V15.3973C19.1341 15.2426 19.0075 15.116 18.8528 15.116H16.8278L20.4735 8.38008C20.4946 8.33789 20.5087 8.29219 20.5087 8.24648C20.5052 8.09531 20.3786 7.96875 20.2239 7.96875H18.3079C18.2024 7.96875 18.104 8.02852 18.0583 8.12344L15.0806 14.0578H14.9646L11.9868 8.12344C11.9635 8.07716 11.9279 8.03823 11.8838 8.01093C11.8398 7.98363 11.789 7.96904 11.7372 7.96875H9.77903C9.73333 7.96875 9.68763 7.9793 9.64544 8.00391C9.50833 8.07773 9.45911 8.25 9.53294 8.38359L13.1857 15.1195Z" fill="#1890FF"/>
</svg>
