<svg width="30" height="30" viewBox="0 0 30 30" fill="none" xmlns="http://www.w3.org/2000/svg">
<path d="M28.0078 6.56602V2.0625C28.0078 1.44023 27.5051 0.9375 26.8828 0.9375H3.11721C2.49494 0.9375 1.99221 1.44023 1.99221 2.0625V6.56602C1.4051 6.60117 0.937522 7.08984 0.937522 7.6875V12.3176C0.93527 13.1685 1.10757 14.0109 1.44377 14.7926C1.59494 15.1512 1.78127 15.4887 1.99221 15.8086V27.9375C1.99221 28.5562 2.49494 29.0625 3.11721 29.0625H26.8828C27.5051 29.0625 28.0078 28.5598 28.0078 27.9375V15.8086C28.2221 15.4879 28.4057 15.1477 28.5563 14.7926C28.8903 14.0086 29.0625 13.1754 29.0625 12.3176V7.6875C29.0625 7.08984 28.5949 6.60117 28.0078 6.56602ZM4.52346 3.46875H25.4766V6.5625H4.52346V3.46875ZM17.25 26.5348H12.75V22.875H17.25V26.5348ZM25.4906 26.5348H19.5V21.75C19.5 21.1277 18.9973 20.625 18.375 20.625H11.625C11.0028 20.625 10.5 21.1277 10.5 21.75V26.5348H4.52346V18.0199C4.62541 18.0691 4.73088 18.1184 4.83987 18.1605C5.62385 18.491 6.45705 18.6562 7.31487 18.6562C8.17268 18.6562 9.00237 18.491 9.78987 18.1605C10.275 17.9566 10.7321 17.6965 11.1504 17.3836C11.1574 17.3801 11.1645 17.3801 11.1715 17.3836C11.5912 17.6978 12.0482 17.9588 12.5321 18.1605C13.316 18.491 14.1492 18.6562 15.0071 18.6562C15.8649 18.6562 16.6946 18.491 17.4821 18.1605C17.9672 17.9566 18.4242 17.6965 18.8426 17.3836C18.8496 17.3801 18.8567 17.3801 18.8637 17.3836C19.2834 17.6978 19.7404 17.9588 20.2242 18.1605C21.0082 18.491 21.8414 18.6562 22.6992 18.6562C23.5571 18.6562 24.3867 18.491 25.1742 18.1605C25.2797 18.1148 25.3852 18.0691 25.4906 18.0199V26.5348ZM26.5313 12.3176C26.5313 14.4199 24.8086 16.125 22.6887 16.125C21.2543 16.125 20.0028 15.348 19.3418 14.1949C19.2399 14.0191 19.0571 13.9102 18.8531 13.9102H18.8321C18.6317 13.9102 18.4453 14.0191 18.3434 14.1949C18.0061 14.7831 17.5191 15.2716 16.9318 15.6106C16.3446 15.9496 15.6781 16.1271 15 16.125C13.5692 16.125 12.3211 15.3516 11.6602 14.202C11.5547 14.0227 11.3649 13.9102 11.1574 13.9102C10.95 13.9102 10.7567 14.0227 10.6547 14.202C10.3155 14.7879 9.82782 15.2742 9.24088 15.6118C8.65395 15.9494 7.98844 16.1264 7.31135 16.125C5.19143 16.125 3.46877 14.4199 3.46877 12.3176V9.11133C3.46877 9.10078 3.4758 9.09375 3.48635 9.09375H26.5137C26.5242 9.09375 26.5313 9.10078 26.5313 9.11133V12.3176Z" fill="#1890FF"/>
</svg>
