<svg width="32" height="32" viewBox="0 0 32 32" fill="none" xmlns="http://www.w3.org/2000/svg">
<path d="M16 0.25C7.30234 0.25 0.25 7.30234 0.25 16C0.25 24.6977 7.30234 31.75 16 31.75C24.6977 31.75 31.75 24.6977 31.75 16C31.75 7.30234 24.6977 0.25 16 0.25ZM16 29.0781C8.77891 29.0781 2.92188 23.2211 2.92188 16C2.92188 8.77891 8.77891 2.92188 16 2.92188C23.2211 2.92188 29.0781 8.77891 29.0781 16C29.0781 23.2211 23.2211 29.0781 16 29.0781Z" fill="#1890FF"/>
<path d="M17.6771 15.1844L16.7841 14.977V10.2555C18.1201 10.4383 18.9463 11.275 19.0869 12.3016C19.1045 12.4422 19.224 12.5441 19.3646 12.5441H20.9431C21.1084 12.5441 21.2385 12.4 21.2244 12.2348C21.0099 10.0445 19.2064 8.63828 16.7982 8.3957V7.24609C16.7982 7.09141 16.6716 6.96484 16.517 6.96484H15.5291C15.3744 6.96484 15.2478 7.09141 15.2478 7.24609V8.40625C12.7587 8.64883 10.8111 10.0234 10.8111 12.5898C10.8111 14.9664 12.5619 16.1125 14.4005 16.552L15.2689 16.7734V21.7902C13.715 21.5828 12.8431 20.7531 12.6638 19.6352C12.6427 19.5016 12.5232 19.4031 12.3861 19.4031H10.7619C10.5966 19.4031 10.4666 19.5438 10.4806 19.709C10.6388 21.6426 12.1048 23.4215 15.2338 23.65V24.7539C15.2338 24.9086 15.3603 25.0352 15.515 25.0352H16.5134C16.6681 25.0352 16.7947 24.9086 16.7947 24.7504L16.7877 23.6359C19.5404 23.3934 21.5092 21.9203 21.5092 19.2766C21.5056 16.8367 19.9553 15.7469 17.6771 15.1844ZM15.2654 14.6148C15.0685 14.5586 14.9033 14.5059 14.738 14.4391C13.5498 14.0102 12.9978 13.3176 12.9978 12.4246C12.9978 11.1484 13.9646 10.4207 15.2654 10.2555V14.6148ZM16.7841 21.8008V17.1004C16.8931 17.132 16.9916 17.1566 17.0935 17.1777C18.7564 17.684 19.3154 18.3871 19.3154 19.4664C19.3154 20.841 18.2818 21.6672 16.7841 21.8008Z" fill="#1890FF"/>
</svg>
