<svg width="36" height="36" viewBox="0 0 36 36" fill="none" xmlns="http://www.w3.org/2000/svg">
<path d="M8.46875 13.8478H27.5305L17.9996 6.91504L8.46875 13.8478Z" fill="#E6F7FF"/>
<path d="M31.4304 16.2424C32.5167 16.2424 32.9702 14.8467 32.0878 14.2033L18.6616 4.43691C18.4699 4.29644 18.2384 4.2207 18.0007 4.2207C17.763 4.2207 17.5315 4.29644 17.3398 4.43691L3.9136 14.2033C3.03117 14.8432 3.48469 16.2424 4.57453 16.2424H6.75071V29.3908H4.21946C4.06477 29.3908 3.93821 29.5174 3.93821 29.6721V31.5002C3.93821 31.6549 4.06477 31.7815 4.21946 31.7815H31.782C31.9366 31.7815 32.0632 31.6549 32.0632 31.5002V29.6721C32.0632 29.5174 31.9366 29.3908 31.782 29.3908H29.2507V16.2424H31.4304ZM13.3952 29.3908H9.28196V16.2424H13.3952V29.3908ZM20.0398 29.3908H15.9265V16.2424H20.0398V29.3908ZM26.7195 29.3908H22.571V16.2424H26.7195V29.3908ZM8.46985 13.8483L18.0007 6.91543L27.5316 13.8483H8.46985Z" fill="#1890FF"/>
</svg>
