<svg width="12" height="12" viewBox="0 0 12 12" fill="none" xmlns="http://www.w3.org/2000/svg">
<path d="M5.37567 9.86867H0V8.3865C0 8.06006 0.0886668 7.75772 0.266 7.4795C0.443333 7.20128 0.680333 6.98739 0.977 6.83783C1.63589 6.51483 2.30061 6.27256 2.97117 6.111C3.64172 5.94944 4.318 5.86867 5 5.86867V6.86867C4.39222 6.86867 3.78983 6.9415 3.19283 7.08717C2.59594 7.23294 2.01028 7.44728 1.43583 7.73017C1.30172 7.80283 1.19556 7.89661 1.11733 8.0115C1.03911 8.1265 1 8.2515 1 8.3865V8.86867H5.0705C5.10183 9.04367 5.14289 9.2145 5.19367 9.38117C5.24456 9.54783 5.30522 9.71033 5.37567 9.86867ZM8.8975 11.3302C8.15472 11.1473 7.56306 10.7386 7.1225 10.104C6.68183 9.46933 6.4615 8.76311 6.4615 7.98533V6.42533L8.8975 5.202L11.3333 6.426V7.98667C11.3333 8.76178 11.113 9.46711 10.6723 10.1027C10.2318 10.7381 9.64017 11.1473 8.8975 11.3302ZM8.8975 10.2955C9.35383 10.1126 9.70828 9.806 9.96083 9.37567C10.2134 8.94533 10.3397 8.48189 10.3397 7.98533V7.04167L8.8975 6.32367L7.45517 7.04167V7.98533C7.45517 8.48189 7.58144 8.94533 7.834 9.37567C8.08656 9.806 8.44106 10.1126 8.8975 10.2955ZM5 4.79167C4.35833 4.79167 3.80906 4.56322 3.35217 4.10633C2.89517 3.64933 2.66667 3.1 2.66667 2.45833C2.66667 1.81667 2.89517 1.26739 3.35217 0.8105C3.80906 0.3535 4.35833 0.125 5 0.125C5.64167 0.125 6.19094 0.3535 6.64783 0.8105C7.10483 1.26739 7.33333 1.81667 7.33333 2.45833C7.33333 3.1 7.10483 3.64933 6.64783 4.10633C6.19094 4.56322 5.64167 4.79167 5 4.79167ZM5 3.79167C5.36667 3.79167 5.68056 3.66111 5.94167 3.4C6.20278 3.13889 6.33333 2.825 6.33333 2.45833C6.33333 2.09167 6.20278 1.77778 5.94167 1.51667C5.68056 1.25556 5.36667 1.125 5 1.125C4.63333 1.125 4.31944 1.25556 4.05833 1.51667C3.79722 1.77778 3.66667 2.09167 3.66667 2.45833C3.66667 2.825 3.79722 3.13889 4.05833 3.4C4.31944 3.66111 4.63333 3.79167 5 3.79167Z" fill="white"/>
</svg>
