<svg width="100" height="100" viewBox="0 0 100 100" fill="none" xmlns="http://www.w3.org/2000/svg">
<path d="M23.5244 38.4687H76.4736L49.999 19.2109L23.5244 38.4687Z" fill="#E6F7FF"/>
<path d="M87.3051 45.1201C90.3227 45.1201 91.5825 41.2432 89.1313 39.4561L51.8364 12.3271C51.3038 11.9369 50.6607 11.7266 50.0004 11.7266C49.3402 11.7266 48.6971 11.9369 48.1645 12.3271L10.8696 39.4561C8.41841 41.2334 9.67818 45.1201 12.7055 45.1201H18.7504V81.6436H11.7192C11.2895 81.6436 10.9379 81.9952 10.9379 82.4249V87.503C10.9379 87.9327 11.2895 88.2843 11.7192 88.2843H88.2817C88.7114 88.2843 89.0629 87.9327 89.0629 87.503V82.4249C89.0629 81.9952 88.7114 81.6436 88.2817 81.6436H81.2504V45.1201H87.3051ZM37.2075 81.6436H25.7817V45.1201H37.2075V81.6436ZM55.6645 81.6436H44.2387V45.1201H55.6645V81.6436ZM74.2192 81.6436H62.6958V45.1201H74.2192V81.6436ZM23.5258 38.4698L50.0004 19.2119L76.475 38.4698H23.5258Z" fill="#1890FF"/>
</svg>
