<svg width="110" height="110" viewBox="0 0 110 110" fill="none" xmlns="http://www.w3.org/2000/svg">
<circle cx="55" cy="55" r="54" stroke="white" stroke-width="2" stroke-dasharray="4 4"/>
<path d="M59.6076 64.1415C59.72 64.9146 59.7809 65.7065 59.7809 66.5077C59.7809 75.3917 52.5822 82.5889 43.7069 82.5889C34.8315 82.5889 27.6235 75.3871 27.6235 66.5077C27.6235 57.6284 34.8222 50.4219 43.7022 50.4219C45.0042 50.4219 46.2735 50.5765 47.4865 50.8717" stroke="white" stroke-width="2" stroke-linecap="round" stroke-linejoin="round"/>
<path d="M78.2497 54.6611C81.648 46.4534 77.7521 37.0437 69.548 33.6439C61.344 30.2442 51.9385 34.1418 48.5402 42.3495C45.142 50.5573 49.0379 59.967 57.242 63.3667C65.446 66.7665 74.8515 62.8688 78.2497 54.6611Z" stroke="white" stroke-width="2" stroke-linecap="round" stroke-linejoin="round"/>
<path d="M28.0825 52.4839C30.0965 41.1446 39.5338 32.3777 51.1865 31.375" stroke="white" stroke-width="2" stroke-linecap="round" stroke-linejoin="round"/>
<path d="M30.7433 50.6169L28.0831 52.5099L26.1909 49.8438" stroke="white" stroke-width="2" stroke-linecap="round" stroke-linejoin="round"/>
<path d="M78.7822 61.4766C76.7683 72.8159 67.3309 81.5827 55.6782 82.5854" stroke="white" stroke-width="2" stroke-linecap="round" stroke-linejoin="round"/>
<path d="M76.1216 63.3696L78.7818 61.4766L80.674 64.138" stroke="white" stroke-width="2" stroke-linecap="round" stroke-linejoin="round"/>
<path d="M40.5972 68.9904C40.5972 70.7053 41.9882 72.097 43.7024 72.097C45.2433 72.097 46.6811 70.7241 46.7514 69.1825C46.7935 68.2782 46.3767 67.3645 45.6695 66.8069C44.4986 65.8791 42.7141 65.94 41.6744 64.867C41.1264 64.3 40.8735 63.4566 41.0281 62.6835C41.2529 61.5261 42.5221 60.4531 43.7071 60.4531C45.1964 60.4531 46.4235 61.6808 46.4235 63.1708" stroke="white" stroke-width="2" stroke-linecap="round" stroke-linejoin="round"/>
<path d="M43.7024 73.7915V72.1328" stroke="white" stroke-width="2" stroke-linecap="round" stroke-linejoin="round"/>
<path d="M43.7024 60.4605V59.2422" stroke="white" stroke-width="2" stroke-linecap="round" stroke-linejoin="round"/>
<path d="M67.2229 53.274C66.2815 53.9346 65.1387 54.3189 63.9022 54.3189C61.1296 54.3189 58.8065 52.3743 58.2258 49.7785C58.1321 49.3661 58.0806 48.935 58.0806 48.4993C58.0806 48.0635 58.1321 47.6324 58.2258 47.2201C58.8065 44.6195 61.1249 42.6797 63.9022 42.6797C65.1387 42.6797 66.2815 43.0686 67.2229 43.7246" stroke="white" stroke-width="2" stroke-linecap="round" stroke-linejoin="round"/>
<path d="M56.4736 50.4844H62.6512" stroke="white" stroke-width="2" stroke-linecap="round" stroke-linejoin="round"/>
<path d="M56.4736 46.5312H62.6512" stroke="white" stroke-width="2" stroke-linecap="round" stroke-linejoin="round"/>
</svg>
