<svg width="101" height="100" viewBox="0 0 101 100" fill="none" xmlns="http://www.w3.org/2000/svg">
<path d="M18.4688 82.0312H82.5312V17.9688H18.4688V82.0312ZM31.75 47.6562C31.75 47.2266 32.1016 46.875 32.5312 46.875H47.375V32.0312C47.375 31.6016 47.7266 31.25 48.1562 31.25H52.8438C53.2734 31.25 53.625 31.6016 53.625 32.0312V46.875H68.4688C68.8984 46.875 69.25 47.2266 69.25 47.6562V52.3438C69.25 52.7734 68.8984 53.125 68.4688 53.125H53.625V67.9688C53.625 68.3984 53.2734 68.75 52.8438 68.75H48.1562C47.7266 68.75 47.375 68.3984 47.375 67.9688V53.125H32.5312C32.1016 53.125 31.75 52.7734 31.75 52.3438V47.6562Z" fill="#E6F7FF"/>
<path d="M86.4375 10.9375H14.5625C12.834 10.9375 11.4375 12.334 11.4375 14.0625V85.9375C11.4375 87.666 12.834 89.0625 14.5625 89.0625H86.4375C88.166 89.0625 89.5625 87.666 89.5625 85.9375V14.0625C89.5625 12.334 88.166 10.9375 86.4375 10.9375ZM82.5312 82.0312H18.4687V17.9687H82.5312V82.0312Z" fill="#1890FF"/>
<path d="M32.5312 53.125H47.375V67.9687C47.375 68.3984 47.7266 68.75 48.1562 68.75H52.8438C53.2734 68.75 53.625 68.3984 53.625 67.9687V53.125H68.4687C68.8984 53.125 69.25 52.7734 69.25 52.3438V47.6562C69.25 47.2266 68.8984 46.875 68.4687 46.875H53.625V32.0312C53.625 31.6016 53.2734 31.25 52.8438 31.25H48.1562C47.7266 31.25 47.375 31.6016 47.375 32.0312V46.875H32.5312C32.1016 46.875 31.75 47.2266 31.75 47.6562V52.3438C31.75 52.7734 32.1016 53.125 32.5312 53.125Z" fill="#1890FF"/>
</svg>
