<svg width="10" height="14" viewBox="0 0 10 14" fill="none" xmlns="http://www.w3.org/2000/svg">
<path d="M5 9.43881C6.03078 8.50637 6.69122 7.8532 6.98133 7.47931C7.27156 7.10531 7.41667 6.73237 7.41667 6.36048C7.41667 5.9987 7.2855 5.68715 7.02317 5.42581C6.76072 5.16448 6.44789 5.03381 6.08467 5.03381C5.86833 5.03381 5.66328 5.07648 5.4695 5.16181C5.27572 5.24715 5.11922 5.36515 5 5.51581C4.87944 5.36515 4.72378 5.24715 4.533 5.16181C4.34222 5.07648 4.13633 5.03381 3.91533 5.03381C3.55389 5.03381 3.2415 5.16437 2.97817 5.42548C2.71494 5.68659 2.58333 5.9982 2.58333 6.36031C2.58333 6.55142 2.60867 6.72743 2.65933 6.88831C2.71011 7.04931 2.82167 7.23793 2.994 7.45415C3.16633 7.67048 3.41072 7.93459 3.72717 8.24648C4.0435 8.55837 4.46778 8.95581 5 9.43881ZM5 13.3235C3.55811 12.9303 2.36433 12.0815 1.41867 10.7773C0.472889 9.47309 0 8.01498 0 6.40298V2.56715L5 0.695312L10 2.56715V6.40298C10 8.01498 9.52711 9.47309 8.58133 10.7773C7.63567 12.0815 6.44189 12.9303 5 13.3235ZM5 12.2696C6.15556 11.903 7.11111 11.1696 7.86667 10.0696C8.62222 8.96965 9 7.74743 9 6.40298V3.25298L5 1.75931L1 3.25298V6.40298C1 7.74743 1.37778 8.96965 2.13333 10.0696C2.88889 11.1696 3.84444 11.903 5 12.2696Z" fill="white"/>
</svg>
