<svg width="66" height="60" viewBox="0 0 66 60" fill="none" xmlns="http://www.w3.org/2000/svg">
<path d="M30 60C25.85 60 21.95 59.2128 18.3 57.6383C14.65 56.0639 11.475 53.9272 8.775 51.2283C6.075 48.5294 3.9375 45.3556 2.3625 41.7067C0.787501 38.0583 0 34.1597 0 30.0108C0 25.8625 0.787501 21.9622 2.3625 18.31C3.9375 14.6583 6.075 11.4817 8.775 8.78C11.475 6.07833 14.65 3.93972 18.3 2.36417C21.95 0.788055 25.85 0 30 0C37.1194 0 43.3706 2.17722 48.7533 6.53167C54.1356 10.8867 57.6025 16.3719 59.1542 22.9875C58.5558 22.7736 57.9656 22.6217 57.3833 22.5317C56.8017 22.4417 56.1994 22.3883 55.5767 22.3717C54.4356 18.4872 52.5222 15.0364 49.8367 12.0192C47.1506 9.00194 43.8717 6.73056 40 5.205V6.66667C40 8.5 39.3472 10.0694 38.0417 11.375C36.7361 12.6806 35.1667 13.3333 33.3333 13.3333H26.6667V20C26.6667 20.9444 26.3472 21.7361 25.7083 22.375C25.0694 23.0139 24.2778 23.3333 23.3333 23.3333H16.6667V30H36.6667C37.1994 30 37.6958 30.1208 38.1558 30.3625C38.6158 30.6036 39.0061 30.9378 39.3267 31.365C38.5067 32.7589 37.8797 34.2303 37.4458 35.7792C37.0119 37.3281 36.795 38.9272 36.795 40.5767C36.795 43.6067 37.5803 46.4722 39.1508 49.1733C40.7214 51.8739 42.3014 54.3589 43.8908 56.6283C41.7842 57.7394 39.5769 58.5792 37.2692 59.1475C34.9614 59.7158 32.5383 60 30 60ZM26.6667 56.5V50C24.8333 50 23.2639 49.3472 21.9583 48.0417C20.6528 46.7361 20 45.1667 20 43.3333V40L4 24C3.83333 25 3.68056 26 3.54167 27C3.40278 28 3.33333 29 3.33333 30C3.33333 36.7222 5.54167 42.6111 9.95833 47.6667C14.375 52.7222 19.9444 55.6667 26.6667 56.5ZM55 60C54.825 60 54.6608 59.9439 54.5075 59.8317C54.3542 59.7194 54.2469 59.5789 54.1858 59.41C53.5747 57.5083 52.7456 55.735 51.6983 54.09C50.6517 52.4444 49.5108 50.8375 48.2758 49.2692C47.2797 47.9958 46.4419 46.6369 45.7625 45.1925C45.0831 43.7481 44.7433 42.1997 44.7433 40.5475C44.7433 37.7297 45.7453 35.3208 47.7492 33.3208C49.7525 31.3208 52.1711 30.3208 55.005 30.3208C57.8394 30.3208 60.2567 31.3219 62.2567 33.3242C64.2567 35.3264 65.2567 37.7439 65.2567 40.5767C65.2567 42.1917 64.9183 43.7236 64.2417 45.1725C63.5656 46.6214 62.7264 47.9869 61.7242 49.2692C60.5319 50.8803 59.3969 52.4989 58.3192 54.125C57.2419 55.7511 56.4069 57.5128 55.8142 59.41C55.7531 59.5789 55.6458 59.7194 55.4925 59.8317C55.3392 59.9439 55.175 60 55 60ZM55 53.8525C55.6839 52.6942 56.4019 51.5947 57.1542 50.5542C57.9058 49.5136 58.6514 48.47 59.3908 47.4233C60.1686 46.415 60.8492 45.3403 61.4325 44.1992C62.0158 43.0581 62.3075 41.8506 62.3075 40.5767C62.3075 38.53 61.6014 36.8003 60.1892 35.3875C58.7769 33.9753 57.0472 33.2692 55 33.2692C52.9528 33.2692 51.2231 33.9753 49.8108 35.3875C48.3986 36.8003 47.6925 38.53 47.6925 40.5767C47.6925 41.8506 47.9842 43.0581 48.5675 44.1992C49.1508 45.3403 49.8314 46.415 50.6092 47.4233C51.4042 48.47 52.1636 49.5244 52.8875 50.5867C53.6119 51.6483 54.3161 52.7369 55 53.8525ZM55.1925 43.4617C54.3847 43.4617 53.7019 43.1828 53.1442 42.625C52.5864 42.0672 52.3075 41.3844 52.3075 40.5767C52.3075 39.7689 52.5864 39.0864 53.1442 38.5292C53.7019 37.9714 54.3847 37.6925 55.1925 37.6925C56.0003 37.6925 56.6828 37.9714 57.24 38.5292C57.7978 39.0864 58.0767 39.7689 58.0767 40.5767C58.0767 41.3844 57.7978 42.0672 57.24 42.625C56.6828 43.1828 56.0003 43.4617 55.1925 43.4617Z" fill="white"/>
</svg>
