<svg width="12" height="14" viewBox="0 0 12 14" fill="none" xmlns="http://www.w3.org/2000/svg">
<path d="M1.99967 13.3354C1.5339 13.3354 1.13967 13.174 0.817008 12.8514C0.494341 12.5287 0.333008 12.1355 0.333008 11.6717V10.002H2.33301V0.796875L3.25617 1.59188L4.19201 0.796875L5.12784 1.59188L6.06384 0.796875L6.99967 1.59188L7.93551 0.796875L8.87151 1.59188L9.80734 0.796875L10.7432 1.59188L11.6663 0.796875V11.6687C11.6663 12.1345 11.505 12.5287 11.1823 12.8514C10.8597 13.174 10.4655 13.3354 9.99967 13.3354H1.99967ZM9.99967 12.3354C10.1886 12.3354 10.3469 12.2715 10.4747 12.1437C10.6025 12.0159 10.6663 11.8576 10.6663 11.6687V2.33538H3.33301V10.002H9.33301V11.6687C9.33301 11.8576 9.3969 12.0159 9.52468 12.1437C9.65245 12.2715 9.81079 12.3354 9.99967 12.3354ZM4.12784 4.83538V3.83538H7.90984V4.83538H4.12784ZM4.12784 6.83538V5.83538H7.90984V6.83538H4.12784ZM9.29451 4.92504C9.13129 4.92504 8.99218 4.8676 8.87718 4.75271C8.76229 4.63771 8.70484 4.4986 8.70484 4.33538C8.70484 4.17215 8.76229 4.03304 8.87718 3.91804C8.99218 3.80315 9.13129 3.74571 9.29451 3.74571C9.45773 3.74571 9.59684 3.80315 9.71184 3.91804C9.82684 4.03304 9.88434 4.17215 9.88434 4.33538C9.88434 4.4986 9.82684 4.63771 9.71184 4.75271C9.59684 4.8676 9.45773 4.92504 9.29451 4.92504ZM9.29451 6.92504C9.13129 6.92504 8.99218 6.8676 8.87718 6.75271C8.76229 6.63771 8.70484 6.4986 8.70484 6.33538C8.70484 6.17215 8.76229 6.03304 8.87718 5.91804C8.99218 5.80315 9.13129 5.74571 9.29451 5.74571C9.45773 5.74571 9.59684 5.80315 9.71184 5.91804C9.82684 6.03304 9.88434 6.17215 9.88434 6.33538C9.88434 6.4986 9.82684 6.63771 9.71184 6.75271C9.59684 6.8676 9.45773 6.92504 9.29451 6.92504ZM1.99967 12.3354H8.33301V11.002H1.33301V11.6687C1.33301 11.8576 1.3969 12.0159 1.52467 12.1437C1.65245 12.2715 1.81079 12.3354 1.99967 12.3354Z" fill="white"/>
</svg>
