<svg width="16" height="16" viewBox="0 0 16 16" fill="none" xmlns="http://www.w3.org/2000/svg">
<path d="M7.99977 15C6.69977 15 5.52005 14.6782 4.46061 14.0345C3.40127 13.3909 2.57033 12.5286 1.96777 11.4473V13.4358H0.967773V9.76917H4.63444V10.7692H2.74077C3.22277 11.7402 3.93516 12.5214 4.87794 13.1128C5.82072 13.7043 6.86133 14 7.99977 14C8.81599 14 9.58161 13.8492 10.2966 13.5475C11.0115 13.2457 11.6373 12.8339 12.1741 12.3122C12.7109 11.7904 13.1419 11.1742 13.4671 10.4635C13.7923 9.75283 13.9678 8.98722 13.9934 8.16667H14.9933C14.9719 9.11367 14.7739 10.0017 14.3991 10.8308C14.0243 11.6598 13.5218 12.3842 12.8914 13.0038C12.2611 13.6235 11.5261 14.1111 10.6863 14.4667C9.84649 14.8222 8.95099 15 7.99977 15ZM7.52794 12.5385V11.6975C7.03994 11.5837 6.63416 11.3811 6.31061 11.0897C5.98716 10.7982 5.73911 10.4051 5.56644 9.91033L6.40994 9.56667C6.56894 10.0009 6.79655 10.3308 7.09277 10.5565C7.38888 10.7821 7.72455 10.8948 8.09977 10.8948C8.47922 10.8948 8.81983 10.8002 9.12161 10.6108C9.42327 10.4216 9.57411 10.118 9.57411 9.7C9.57411 9.35211 9.44444 9.075 9.18511 8.86867C8.92566 8.66222 8.44166 8.42906 7.73311 8.16917C7.04766 7.92306 6.55322 7.64744 6.24977 7.34233C5.94633 7.03722 5.79461 6.63422 5.79461 6.13333C5.79461 5.70344 5.94977 5.30983 6.26011 4.9525C6.57033 4.59528 7.00405 4.3675 7.56127 4.26917V3.4615H8.47161V4.26917C8.84594 4.29828 9.19061 4.43911 9.50561 4.69167C9.82049 4.94422 10.0476 5.24783 10.1869 5.6025L9.36394 5.93333C9.24938 5.68633 9.08566 5.481 8.87277 5.31733C8.66 5.15367 8.38011 5.07183 8.03311 5.07183C7.61855 5.07183 7.29355 5.17011 7.05811 5.36667C6.82266 5.56322 6.70494 5.81878 6.70494 6.13333C6.70494 6.44789 6.81988 6.69278 7.04977 6.868C7.27966 7.04322 7.74505 7.2505 8.44594 7.48983C9.24594 7.77872 9.78355 8.10261 10.0588 8.4615C10.334 8.8205 10.4716 9.23333 10.4716 9.7C10.4716 10.018 10.4128 10.2971 10.2953 10.5372C10.1777 10.7774 10.0241 10.9793 9.83444 11.143C9.64466 11.3067 9.42861 11.4359 9.18627 11.5308C8.94394 11.6256 8.69461 11.6923 8.43827 11.7308V12.5385H7.52794ZM1.00627 7.83333C1.03616 6.865 1.24061 5.96522 1.61961 5.134C1.99872 4.30278 2.50555 3.5795 3.14011 2.96417C3.77477 2.34872 4.50877 1.8675 5.34211 1.5205C6.17544 1.1735 7.06133 1 7.99977 1C9.28699 1 10.4667 1.32289 11.5389 1.96867C12.6112 2.61433 13.4421 3.48422 14.0318 4.57833V2.56417H15.0318V6.23083H11.3651V5.23083H13.2588C12.7895 4.27694 12.0825 3.5 11.1376 2.9C10.1927 2.3 9.14677 2 7.99977 2C7.20066 2 6.44466 2.14872 5.73177 2.44617C5.019 2.74361 4.39211 3.15106 3.85111 3.6685C3.31011 4.18606 2.87377 4.80017 2.54211 5.51083C2.21044 6.2215 2.03177 6.99567 2.00611 7.83333H1.00627Z" fill="white"/>
</svg>
