<svg width="46" height="40" viewBox="0 0 46 40" fill="none" xmlns="http://www.w3.org/2000/svg">
<path d="M23 27.5C25.1763 27.5 27.1329 26.8558 28.87 25.5675C30.6075 24.2787 31.8158 22.5831 32.495 20.4806L29.8556 20.5287C29.2594 21.9104 28.3404 23.001 27.0988 23.8006C25.8567 24.6002 24.4904 25 23 25C21.5096 25 20.1433 24.6002 18.9013 23.8006C17.6596 23.001 16.7406 21.9104 16.1444 20.5287H13.505C14.1842 22.6312 15.3925 24.3187 17.13 25.5912C18.8671 26.8638 20.8237 27.5 23 27.5ZM16.1275 15.0962C16.6804 15.0962 17.1467 14.9054 17.5263 14.5238C17.9062 14.1421 18.0963 13.675 18.0963 13.1225C18.0963 12.5696 17.9054 12.1033 17.5238 11.7238C17.1421 11.3438 16.675 11.1538 16.1225 11.1538C15.5696 11.1538 15.1033 11.3446 14.7237 11.7262C14.3437 12.1079 14.1537 12.575 14.1537 13.1275C14.1537 13.6804 14.3446 14.1467 14.7262 14.5262C15.1079 14.9062 15.575 15.0962 16.1275 15.0962ZM29.8775 15.0962C30.4304 15.0962 30.8967 14.9054 31.2762 14.5238C31.6562 14.1421 31.8462 13.675 31.8462 13.1225C31.8462 12.5696 31.6554 12.1033 31.2738 11.7238C30.8921 11.3438 30.425 11.1538 29.8725 11.1538C29.3196 11.1538 28.8533 11.3446 28.4738 11.7262C28.0938 12.1079 27.9038 12.575 27.9038 13.1275C27.9038 13.6804 28.0946 14.1467 28.4762 14.5262C28.8579 14.9062 29.325 15.0962 29.8775 15.0962ZM23 40L21.1056 38.3175C17.0256 34.6188 13.6506 31.444 10.9806 28.7931C8.31104 26.1427 6.20375 23.8029 4.65875 21.7738C3.11375 19.745 2.03437 17.915 1.42062 16.2837C0.806875 14.6521 0.5 12.9902 0.5 11.2981C0.5 8.07979 1.58021 5.39229 3.74063 3.23563C5.90063 1.07854 8.57042 0 11.75 0C13.9487 0 16.0112 0.5625 17.9375 1.6875C19.8638 2.8125 21.5513 4.44875 23 6.59625C24.4487 4.44875 26.1362 2.8125 28.0625 1.6875C29.9888 0.5625 32.0513 0 34.25 0C37.4296 0 40.0994 1.07854 42.2594 3.23563C44.4198 5.39229 45.5 8.07979 45.5 11.2981C45.5 12.9902 45.1931 14.6521 44.5794 16.2837C43.9656 17.915 42.8862 19.745 41.3413 21.7738C39.7963 23.8029 37.6969 26.1427 35.0431 28.7931C32.3894 31.444 29.0065 34.6188 24.8944 38.3175L23 40ZM23 36.6156C27 32.9835 30.2917 29.8983 32.875 27.36C35.4583 24.8221 37.5 22.6033 39 20.7038C40.5 18.8046 41.5417 17.1188 42.125 15.6463C42.7083 14.1738 43 12.7244 43 11.2981C43 8.78438 42.1667 6.68958 40.5 5.01375C38.8333 3.33791 36.75 2.5 34.25 2.5C32.2679 2.5 30.4335 3.06813 28.7469 4.20438C27.0598 5.34063 25.5513 7.05125 24.2213 9.33625H21.7787C20.4167 7.01917 18.9023 5.30042 17.2356 4.18C15.569 3.06 13.7404 2.5 11.75 2.5C9.28208 2.5 7.20667 3.33791 5.52375 5.01375C3.84125 6.68958 3 8.78438 3 11.2981C3 12.7244 3.29167 14.1702 3.875 15.6356C4.45833 17.101 5.5 18.779 7 20.6694C8.5 22.5598 10.5417 24.7787 13.125 27.3263C15.7083 29.8733 19 32.9698 23 36.6156Z" fill="#0382EA"/>
</svg>
