<svg width="60" height="60" viewBox="0 0 60 60" fill="none" xmlns="http://www.w3.org/2000/svg">
<path d="M20.9613 50V47.5H28.75V38.1156C26.5479 37.721 24.6208 36.8002 22.9688 35.3531C21.3167 33.906 20.1796 32.1121 19.5575 29.9713C16.9133 29.6604 14.6594 28.5763 12.7956 26.7188C10.9319 24.8612 10 22.6217 10 20V17.5C10 16.83 10.2492 16.2458 10.7475 15.7475C11.2458 15.2492 11.83 15 12.5 15H19.1344V10H40.8656V15H47.5C48.17 15 48.7542 15.2492 49.2525 15.7475C49.7508 16.2458 50 16.83 50 17.5V20C50 22.6217 49.0681 24.8612 47.2044 26.7188C45.3406 28.5763 43.0867 29.6604 40.4425 29.9713C39.8204 32.1121 38.6833 33.906 37.0312 35.3531C35.3792 36.8002 33.4521 37.721 31.25 38.1156V47.5H39.0387V50H20.9613ZM19.1344 27.2887V17.5H12.5V20C12.5 21.9037 13.1346 23.5392 14.4038 24.9062C15.6729 26.2733 17.2498 27.0675 19.1344 27.2887ZM30 35.6731C32.3075 35.6731 34.2627 34.8719 35.8656 33.2694C37.4681 31.6669 38.2694 29.7117 38.2694 27.4038V12.5H21.7306V27.4038C21.7306 29.7117 22.5319 31.6669 24.1344 33.2694C25.7373 34.8719 27.6925 35.6731 30 35.6731ZM40.8656 27.2887C42.7502 27.0675 44.3271 26.2733 45.5962 24.9062C46.8654 23.5392 47.5 21.9037 47.5 20V17.5H40.8656V27.2887Z" fill="#0382EA"/>
</svg>
