<svg width="16" height="16" viewBox="0 0 16 16" fill="none" xmlns="http://www.w3.org/2000/svg">
<g clip-path="url(#clip0_3817_3324)">
<g filter="url(#filter0_dddd_3817_3324)">
<path d="M2.3205 8.83575L7.16667 1.86792V8.83575H2.3205ZM4.2295 7.83575H6.16667V5.05358L4.2295 7.83575ZM8.56417 8.83575C8.68894 8.51608 8.82056 7.98553 8.959 7.24408C9.09744 6.50264 9.16667 5.75542 9.16667 5.00242C9.16667 4.21519 9.09917 3.43681 8.96417 2.66725C8.82906 1.89758 8.69783 1.31058 8.5705 0.90625C9.22694 1.15758 9.86456 1.54692 10.4833 2.07425C11.1021 2.60158 11.6542 3.21847 12.1397 3.92492C12.6252 4.63125 13.0214 5.40408 13.3282 6.24342C13.6351 7.08275 13.8013 7.94686 13.8268 8.83575H8.56417ZM9.868 7.83575H12.7192C12.5432 6.86053 12.2092 5.95858 11.7173 5.12992C11.2254 4.30136 10.6594 3.60075 10.0192 3.02808C10.0628 3.34253 10.0983 3.66858 10.1257 4.00625C10.153 4.34381 10.1667 4.67586 10.1667 5.00242C10.1667 5.51608 10.1384 6.01225 10.082 6.49092C10.0257 6.96958 9.95433 7.41786 9.868 7.83575ZM6 12.7076C5.62567 12.7076 5.26628 12.6281 4.92183 12.4691C4.57739 12.3101 4.27011 12.0861 4 11.7972C3.87011 11.934 3.72739 12.065 3.57183 12.1903C3.41628 12.3155 3.25089 12.414 3.07567 12.4857C2.70389 12.2054 2.38722 11.8663 2.12567 11.4684C1.86411 11.0705 1.67267 10.6374 1.55133 10.1691H14.4487C14.3273 10.6374 14.1359 11.0705 13.8743 11.4684C13.6128 11.8663 13.2961 12.2054 12.9243 12.4857C12.7491 12.414 12.5837 12.3155 12.4282 12.1903C12.2726 12.065 12.1299 11.934 12 11.7972C11.7231 12.0861 11.4141 12.3101 11.073 12.4691C10.732 12.6281 10.3743 12.7076 10 12.7076C9.62567 12.7076 9.26522 12.6281 8.91867 12.4691C8.572 12.3101 8.26578 12.084 8 11.7909C7.73422 12.084 7.428 12.3101 7.08133 12.4691C6.73478 12.6281 6.37433 12.7076 6 12.7076ZM1.5 15.1691V14.1691H2C2.35556 14.1691 2.70172 14.1135 3.0385 14.0024C3.37528 13.8913 3.69578 13.731 4 13.5216C4.30856 13.731 4.63011 13.8896 4.96467 13.9972C5.29933 14.105 5.64444 14.1589 6 14.1589C6.35556 14.1589 6.69894 14.105 7.03017 13.9972C7.36139 13.8896 7.68467 13.731 8 13.5216C8.30856 13.731 8.63011 13.8896 8.96467 13.9972C9.29933 14.105 9.64444 14.1589 10 14.1589C10.3556 14.1589 10.7 14.105 11.0333 13.9972C11.3667 13.8896 11.6889 13.731 12 13.5216C12.3153 13.731 12.6386 13.8913 12.9698 14.0024C13.3011 14.1135 13.6444 14.1691 14 14.1691H14.5V15.1691H14C13.6683 15.1691 13.3358 15.1264 13.0025 15.0409C12.6692 14.9554 12.335 14.825 12 14.6499C11.665 14.825 11.3308 14.9554 10.9975 15.0409C10.6642 15.1264 10.3317 15.1691 10 15.1691C9.66833 15.1691 9.33583 15.1264 9.0025 15.0409C8.66917 14.9554 8.335 14.825 8 14.6499C7.665 14.825 7.33083 14.9554 6.9975 15.0409C6.66417 15.1264 6.33167 15.1691 6 15.1691C5.66833 15.1691 5.33583 15.1264 5.0025 15.0409C4.66917 14.9554 4.335 14.825 4 14.6499C3.665 14.825 3.33083 14.9554 2.9975 15.0409C2.66417 15.1264 2.33167 15.1691 2 15.1691H1.5Z" fill="white"/>
</g>
</g>
<defs>
<filter id="filter0_dddd_3817_3324" x="-2.5" y="0.90625" width="21" height="22.2656" filterUnits="userSpaceOnUse" color-interpolation-filters="sRGB">
<feFlood flood-opacity="0" result="BackgroundImageFix"/>
<feColorMatrix in="SourceAlpha" type="matrix" values="0 0 0 0 0 0 0 0 0 0 0 0 0 0 0 0 0 0 127 0" result="hardAlpha"/>
<feOffset dy="4"/>
<feGaussianBlur stdDeviation="2"/>
<feComposite in2="hardAlpha" operator="out"/>
<feColorMatrix type="matrix" values="0 0 0 0 0 0 0 0 0 0 0 0 0 0 0 0 0 0 0.25 0"/>
<feBlend mode="normal" in2="BackgroundImageFix" result="effect1_dropShadow_3817_3324"/>
<feColorMatrix in="SourceAlpha" type="matrix" values="0 0 0 0 0 0 0 0 0 0 0 0 0 0 0 0 0 0 127 0" result="hardAlpha"/>
<feOffset dy="4"/>
<feGaussianBlur stdDeviation="2"/>
<feComposite in2="hardAlpha" operator="out"/>
<feColorMatrix type="matrix" values="0 0 0 0 0 0 0 0 0 0 0 0 0 0 0 0 0 0 0.25 0"/>
<feBlend mode="normal" in2="effect1_dropShadow_3817_3324" result="effect2_dropShadow_3817_3324"/>
<feColorMatrix in="SourceAlpha" type="matrix" values="0 0 0 0 0 0 0 0 0 0 0 0 0 0 0 0 0 0 127 0" result="hardAlpha"/>
<feOffset dy="4"/>
<feGaussianBlur stdDeviation="2"/>
<feComposite in2="hardAlpha" operator="out"/>
<feColorMatrix type="matrix" values="0 0 0 0 0 0 0 0 0 0 0 0 0 0 0 0 0 0 0.25 0"/>
<feBlend mode="normal" in2="effect2_dropShadow_3817_3324" result="effect3_dropShadow_3817_3324"/>
<feColorMatrix in="SourceAlpha" type="matrix" values="0 0 0 0 0 0 0 0 0 0 0 0 0 0 0 0 0 0 127 0" result="hardAlpha"/>
<feOffset dy="4"/>
<feGaussianBlur stdDeviation="2"/>
<feComposite in2="hardAlpha" operator="out"/>
<feColorMatrix type="matrix" values="0 0 0 0 0 0 0 0 0 0 0 0 0 0 0 0 0 0 0.25 0"/>
<feBlend mode="normal" in2="effect3_dropShadow_3817_3324" result="effect4_dropShadow_3817_3324"/>
<feBlend mode="normal" in="SourceGraphic" in2="effect4_dropShadow_3817_3324" result="shape"/>
</filter>
<clipPath id="clip0_3817_3324">
<rect width="16" height="16" fill="white"/>
</clipPath>
</defs>
</svg>
