<svg width="44" height="34" viewBox="0 0 44 34" fill="none" xmlns="http://www.w3.org/2000/svg">
<path d="M31.5193 12.2419C30.6377 12.2419 29.8885 11.9333 29.2718 11.3162C28.6547 10.6992 28.3462 9.95 28.3462 9.06875C28.3462 8.18709 28.6547 7.43792 29.2718 6.82125C29.8885 6.20417 30.6377 5.89563 31.5193 5.89563C32.4006 5.89563 33.1497 6.20417 33.7668 6.82125C34.3839 7.43792 34.6924 8.18709 34.6924 9.06875C34.6924 9.95 34.3839 10.6992 33.7668 11.3162C33.1497 11.9333 32.4006 12.2419 31.5193 12.2419ZM12.4806 12.2419C11.5993 12.2419 10.8502 11.9333 10.2331 11.3162C9.61598 10.6992 9.30744 9.95 9.30744 9.06875C9.30744 8.18709 9.61598 7.43792 10.2331 6.82125C10.8502 6.20417 11.5993 5.89563 12.4806 5.89563C13.3622 5.89563 14.1114 6.20417 14.7281 6.82125C15.3451 7.43792 15.6537 8.18709 15.6537 9.06875C15.6537 9.95 15.3451 10.6992 14.7281 11.3162C14.1114 11.9333 13.3622 12.2419 12.4806 12.2419ZM21.9999 18.0588C21.1187 18.0588 20.3695 17.7504 19.7524 17.1338C19.1354 16.5167 18.8268 15.7673 18.8268 14.8856C18.8268 14.0044 19.1354 13.2552 19.7524 12.6381C20.3695 12.021 21.1187 11.7125 21.9999 11.7125C22.8812 11.7125 23.6304 12.021 24.2474 12.6381C24.8645 13.2552 25.1731 14.0044 25.1731 14.8856C25.1731 15.7673 24.8645 16.5167 24.2474 17.1338C23.6304 17.7504 22.8812 18.0588 21.9999 18.0588ZM21.9999 6.42438C21.1187 6.42438 20.3695 6.11584 19.7524 5.49875C19.1354 4.88167 18.8268 4.1325 18.8268 3.25125C18.8268 2.37 19.1354 1.62083 19.7524 1.00375C20.3695 0.386667 21.1187 0.078125 21.9999 0.078125C22.8812 0.078125 23.6304 0.386667 24.2474 1.00375C24.8645 1.62083 25.1731 2.37 25.1731 3.25125C25.1731 4.1325 24.8645 4.88167 24.2474 5.49875C23.6304 6.11584 22.8812 6.42438 21.9999 6.42438ZM22.0024 33.9244C21.2958 33.9244 20.5793 33.8779 19.8531 33.785C19.1272 33.6921 18.4327 33.5415 17.7693 33.3331V25.79C17.7693 24.5238 18.1835 23.4475 19.0118 22.5613C19.8406 21.675 20.8366 21.2319 21.9999 21.2319C23.1633 21.2319 24.1593 21.675 24.9881 22.5613C25.8164 23.4475 26.2306 24.5238 26.2306 25.79V33.3331C25.5672 33.5415 24.8733 33.6921 24.1487 33.785C23.4245 33.8779 22.7091 33.9244 22.0024 33.9244ZM14.5962 32.2125C13.8979 31.9342 13.2256 31.621 12.5793 31.2731C11.9335 30.9252 11.3047 30.5373 10.6931 30.1094C9.68598 29.3965 8.89494 28.4758 8.31994 27.3475C7.74452 26.2192 7.45682 25.0204 7.45682 23.7513C7.45682 22.8558 7.35828 22.0206 7.16119 21.2456C6.96411 20.4706 6.62057 19.715 6.13057 18.9788C5.78057 18.5 5.12182 17.7917 4.15432 16.8538C3.18682 15.9154 2.29848 15.0392 1.48932 14.225C1.10223 13.8354 0.908691 13.3471 0.908691 12.76C0.908691 12.1725 1.10578 11.6888 1.49994 11.3088C1.88786 10.9146 2.3814 10.7175 2.98057 10.7175C3.58015 10.7175 4.07369 10.9113 4.46119 11.2988L12.5443 18.9588C13.2489 19.5929 13.767 20.3483 14.0987 21.225C14.4304 22.1017 14.5962 22.9854 14.5962 23.8763V32.2125ZM29.4037 32.2125V23.8963C29.4037 22.9838 29.5799 22.0888 29.9324 21.2113C30.2849 20.3342 30.7931 19.5896 31.4568 18.9775L39.5706 11.3C39.9947 10.9117 40.4985 10.7175 41.0818 10.7175C41.6651 10.7175 42.1539 10.9146 42.5481 11.3088C42.9422 11.7029 43.1393 12.1942 43.1393 12.7825C43.1393 13.3708 42.9464 13.8552 42.5606 14.2356C41.7543 15.0315 40.8595 15.8952 39.8762 16.8269C38.8933 17.7585 38.2231 18.4754 37.8656 18.9775C37.3718 19.6796 37.0281 20.4254 36.8343 21.215C36.6401 22.005 36.5431 22.8563 36.5431 23.7688C36.5431 25.0329 36.2554 26.2298 35.6799 27.3594C35.1049 28.4894 34.3062 29.4192 33.2837 30.1488C32.7195 30.5504 32.1093 30.9252 31.4531 31.2731C30.7964 31.621 30.1133 31.9342 29.4037 32.2125Z" fill="#0382EA"/>
</svg>
