<svg width="16" height="16" viewBox="0 0 16 16" fill="none" xmlns="http://www.w3.org/2000/svg">
<path d="M2.16699 13.7214V4.72135H4.83366V2.05469H11.167V7.38802H13.8337V13.7214H8.83366V11.0547H7.16699V13.7214H2.16699ZM3.16699 12.7214H4.83366V11.0547H3.16699V12.7214ZM3.16699 10.0547H4.83366V8.38802H3.16699V10.0547ZM3.16699 7.38802H4.83366V5.72135H3.16699V7.38802ZM5.83366 10.0547H7.50033V8.38802H5.83366V10.0547ZM5.83366 7.38802H7.50033V5.72135H5.83366V7.38802ZM5.83366 4.72135H7.50033V3.05469H5.83366V4.72135ZM8.50033 10.0547H10.167V8.38802H8.50033V10.0547ZM8.50033 7.38802H10.167V5.72135H8.50033V7.38802ZM8.50033 4.72135H10.167V3.05469H8.50033V4.72135ZM11.167 12.7214H12.8337V11.0547H11.167V12.7214ZM11.167 10.0547H12.8337V8.38802H11.167V10.0547Z" fill="white"/>
</svg>
