<svg width="60" height="60" viewBox="0 0 60 60" fill="none" xmlns="http://www.w3.org/2000/svg">
<path d="M52.2406 45.0194L46.5194 39.25L48.2406 37.5287L54.0094 43.25L52.2406 45.0194ZM44.25 15.9325L42.5287 14.2113L48.25 8.49062L50.0194 10.2113L44.25 15.9325ZM15.75 15.9806L10.0287 10.2113L11.75 8.49062L17.5194 14.2113L15.75 15.9806ZM7.71123 45.0194L5.9906 43.25L11.7112 37.5287L13.4806 39.25L7.71123 45.0194ZM19.9137 44.7069L30 38.6588L40.1344 44.8175L37.495 33.3656L46.3556 25.7306L34.6825 24.6781L30 13.87L25.3656 24.6156L13.6925 25.62L22.5531 33.3656L19.9137 44.7069ZM16.1012 50L19.7787 34.3125L7.49998 23.7019L23.6731 22.3319L30 7.5L36.375 22.3319L52.5481 23.7019L40.2694 34.3125L43.9469 50L30 41.6488L16.1012 50Z" fill="#0382EA"/>
</svg>
