<svg width="91" height="70" viewBox="0 0 91 70" fill="none" xmlns="http://www.w3.org/2000/svg">
<path d="M59.9215 1.64202C60.9188 1.42157 61.9189 1.20111 62.9254 1.03906C63.0146 2.16679 63.1304 3.29169 63.2334 4.41847C61.5788 4.72372 59.8783 4.90838 58.3194 5.59519C57.0086 6.15104 55.7732 6.9217 54.7547 7.9392C56.2163 7.7649 57.6732 8.04848 59.1209 8.22654C62.4245 8.68913 65.7225 9.42116 68.7853 10.8042C69.6668 11.1952 70.5584 11.6323 71.2257 12.3606C71.7396 12.8891 72.1413 13.6372 71.9887 14.4041C71.8306 15.137 71.3002 15.723 70.7055 16.1282C69.6549 16.8423 68.413 17.1598 67.208 17.4811C63.6148 18.4025 59.8314 18.8801 56.1593 18.1829C54.4882 17.8852 52.8575 17.1579 51.635 15.9331C50.7388 15.0259 50.1174 13.8228 49.9667 12.5339C49.7341 10.8287 50.2672 9.10272 51.1405 7.66127C52.0735 6.11712 53.3842 4.83395 54.8641 3.84472C56.3973 2.79613 58.1208 2.04431 59.9215 1.64202ZM52.8116 12.1439C52.8557 12.9523 53.2592 13.7154 53.865 14.2307C55.0094 15.2331 56.5242 15.642 57.9885 15.8352C61.7755 16.2817 65.6315 15.7287 69.2458 14.5341C69.5639 14.4436 69.8212 14.2213 70.0363 13.9735C69.4067 13.1247 68.4535 12.6225 67.5324 12.1797C63.7711 10.498 59.7818 9.34862 55.7135 8.79747C55.1904 8.73718 54.6674 8.6392 54.1398 8.64391C53.3144 9.59169 52.7197 10.8466 52.8116 12.1439ZM53.5065 21.5284C56.8459 21.829 60.1789 22.2209 63.5174 22.544C61.4933 38.0411 59.4996 53.5419 57.4664 69.038C57.288 67.5089 57.2053 65.9685 57.0638 64.4357C56.1988 53.9753 55.3338 43.5158 54.4707 33.0554C54.1453 29.2134 53.8484 25.3685 53.5065 21.5284Z" fill="white"/>
<path d="M6.61885 8.87594C13.7113 8.87594 20.8038 8.87688 27.8963 8.875C27.8981 9.87271 27.8972 10.8695 27.8972 11.8672C23.1864 11.8672 18.4755 11.8663 13.7647 11.8672C13.7647 18.9492 13.7647 26.0302 13.7647 33.1122C17.2116 33.1131 20.6586 33.1103 24.1056 33.1131C24.1056 34.1099 24.1065 35.1066 24.1056 36.1034C20.6586 36.1034 17.2116 36.1034 13.7656 36.1034C13.7637 43.648 13.7647 51.1925 13.7647 58.738C18.4755 58.7389 23.1864 58.7371 27.8972 58.7389C27.8935 59.6895 27.9046 60.6411 27.8917 61.5926C20.8011 61.5823 13.7095 61.5908 6.61885 61.5879C6.61793 44.0173 6.61793 26.4466 6.61885 8.87594ZM32.0336 26.4702C33.9804 26.4702 35.9273 26.4702 37.8741 26.4702C39.9432 26.473 42.0601 26.5983 44.0143 27.3567C45.3159 27.8598 46.5366 28.7134 47.2646 29.9532C48.1204 31.3457 48.2628 33.0528 48.1691 34.6582C48.0882 36.3512 47.6212 38.0593 46.6377 39.4395C46.0605 40.2563 45.3205 40.9422 44.5024 41.498C46.213 41.9955 47.7656 43.0846 48.761 44.6033C50.1159 46.6298 50.6003 49.1179 50.7594 51.5298C50.6831 53.4536 50.3053 55.4047 49.3934 57.1053C48.6664 58.4723 47.5404 59.6076 46.1993 60.3377C44.4684 61.2893 42.4839 61.6275 40.5398 61.6821C37.705 61.6831 34.8702 61.6803 32.0354 61.6831C32.0308 49.9461 32.0345 38.2081 32.0336 26.4702ZM37.3631 29.1345C37.3677 32.8399 37.3631 36.5443 37.3649 40.2488C38.1765 40.2497 38.9873 40.2469 39.798 40.2506C40.5573 40.2497 41.3211 39.9708 41.8809 39.4395C42.426 38.9147 42.7642 38.2053 42.9766 37.4789C43.2799 36.4162 43.3544 35.3017 43.3645 34.1994C43.3525 33.0801 43.1871 31.9147 42.5923 30.9528C42.1438 30.2085 41.4066 29.68 40.6005 29.4171C39.5553 29.0742 38.445 29.1345 37.3631 29.1345ZM37.3649 42.8161C37.3612 48.255 37.3723 53.6929 37.3594 59.1309C38.1738 59.1478 38.9882 59.1327 39.8017 59.1393C40.5839 59.1563 41.3772 59.0187 42.0886 58.6796C43.1255 58.1944 43.8921 57.2532 44.371 56.2122C45.0824 54.6624 45.3481 52.943 45.4713 51.249C45.3986 50.0186 45.2304 48.791 44.9308 47.5964C44.587 46.3113 44.0796 45.0093 43.1273 44.0681C42.3295 43.2475 41.1943 42.8245 40.0738 42.8151C39.1711 42.817 38.2685 42.8151 37.3649 42.8161ZM66.6972 26.4937C68.7075 26.4965 70.7178 26.4881 72.7281 26.4984C74.15 30.3706 75.5748 34.2418 76.9977 38.1139C78.7092 34.2465 80.3757 30.3583 82.0854 26.4899C82.9697 26.5022 83.854 26.4833 84.7391 26.4994C82.5423 31.519 80.3573 36.5434 78.1596 41.5621C80.634 48.27 83.1278 54.9704 85.5903 61.6821C83.6747 61.6774 81.7591 61.6906 79.8435 61.6755C78.8535 59.0376 77.8507 56.4053 76.8534 53.7692C76.2283 52.145 75.641 50.5047 74.9893 48.8918C73.1472 53.1549 71.3079 57.419 69.4631 61.6803C68.5558 61.6803 67.6495 61.6887 66.7432 61.6755C69.032 56.4062 71.3061 51.1303 73.5939 45.8601C73.6325 45.7253 73.7621 45.5897 73.6868 45.4455C71.3603 39.1276 69.0163 32.8154 66.6972 26.4937Z" fill="white"/>
</svg>
