<svg width="30" height="30" viewBox="0 0 30 30" fill="none" xmlns="http://www.w3.org/2000/svg">
<path d="M27.9375 0.9375H2.0625C1.44023 0.9375 0.9375 1.44023 0.9375 2.0625V27.9375C0.9375 28.5598 1.44023 29.0625 2.0625 29.0625H27.9375C28.5598 29.0625 29.0625 28.5598 29.0625 27.9375V2.0625C29.0625 1.44023 28.5598 0.9375 27.9375 0.9375ZM26.5312 26.5312H3.46875V3.46875H26.5312V26.5312Z" fill="#1890FF"/>
<path d="M8.53125 16.125H13.875V21.4688C13.875 21.6234 14.0016 21.75 14.1562 21.75H15.8438C15.9984 21.75 16.125 21.6234 16.125 21.4688V16.125H21.4688C21.6234 16.125 21.75 15.9984 21.75 15.8438V14.1562C21.75 14.0016 21.6234 13.875 21.4688 13.875H16.125V8.53125C16.125 8.37656 15.9984 8.25 15.8438 8.25H14.1562C14.0016 8.25 13.875 8.37656 13.875 8.53125V13.875H8.53125C8.37656 13.875 8.25 14.0016 8.25 14.1562V15.8438C8.25 15.9984 8.37656 16.125 8.53125 16.125Z" fill="#1890FF"/>
</svg>
