<svg width="36" height="36" viewBox="0 0 36 36" fill="none" xmlns="http://www.w3.org/2000/svg">
<path d="M19.1953 13.2891H29.6719V16.9453H19.1953V13.2891ZM8.01562 19.3359H16.8047V30.1641H8.01562V19.3359ZM6.32812 13.2891H16.8047V16.9453H6.32812V13.2891ZM19.1953 19.3359H27.9844V30.1641H19.1953V19.3359Z" fill="#E6F7FF"/>
<path d="M30.9375 10.8984H25.7484C26.2266 10.1461 26.5078 9.25313 26.5078 8.29688C26.5078 5.62148 24.3316 3.44531 21.6562 3.44531C20.2008 3.44531 18.8895 4.09219 18 5.11172C17.1105 4.09219 15.7992 3.44531 14.3438 3.44531C11.6684 3.44531 9.49219 5.62148 9.49219 8.29688C9.49219 9.25313 9.76992 10.1461 10.2516 10.8984H5.0625C4.44023 10.8984 3.9375 11.4012 3.9375 12.0234V19.0547C3.9375 19.2094 4.06406 19.3359 4.21875 19.3359H5.625V31.4297C5.625 32.052 6.12773 32.5547 6.75 32.5547H29.25C29.8723 32.5547 30.375 32.052 30.375 31.4297V19.3359H31.7812C31.9359 19.3359 32.0625 19.2094 32.0625 19.0547V12.0234C32.0625 11.4012 31.5598 10.8984 30.9375 10.8984ZM16.8047 30.1641H8.01562V19.3359H16.8047V30.1641ZM16.8047 16.9453H6.32812V13.2891H16.8047V16.9453ZM16.8047 10.7578H14.3438C12.9867 10.7578 11.8828 9.65391 11.8828 8.29688C11.8828 6.93984 12.9867 5.83594 14.3438 5.83594C15.7008 5.83594 16.8047 6.93984 16.8047 8.29688V10.7578ZM19.1953 8.29688C19.1953 6.93984 20.2992 5.83594 21.6562 5.83594C23.0133 5.83594 24.1172 6.93984 24.1172 8.29688C24.1172 9.65391 23.0133 10.7578 21.6562 10.7578H19.1953V8.29688ZM27.9844 30.1641H19.1953V19.3359H27.9844V30.1641ZM29.6719 16.9453H19.1953V13.2891H29.6719V16.9453Z" fill="#1890FF"/>
</svg>
