<svg width="36" height="36" viewBox="0 0 36 36" fill="none" xmlns="http://www.w3.org/2000/svg">
<path d="M32.4492 9.97034C31.978 8.87922 31.2985 7.89045 30.4488 7.0594C29.5985 6.22587 28.596 5.56347 27.4957 5.10823C26.3548 4.6343 25.1311 4.39171 23.8957 4.39456C22.1625 4.39456 20.4715 4.86917 19.002 5.76565C18.6504 5.9801 18.3164 6.21565 18 6.47229C17.6836 6.21565 17.3496 5.9801 16.998 5.76565C15.5285 4.86917 13.8375 4.39456 12.1043 4.39456C10.8562 4.39456 9.64687 4.63362 8.5043 5.10823C7.40039 5.56526 6.40547 6.22268 5.55117 7.0594C4.70038 7.88952 4.02074 8.87851 3.55078 9.97034C3.06211 11.1059 2.8125 12.3117 2.8125 13.5528C2.8125 14.7235 3.05156 15.9434 3.52617 17.1844C3.92344 18.2215 4.49297 19.2973 5.2207 20.3836C6.37383 22.1028 7.95937 23.8957 9.92812 25.7133C13.1906 28.7262 16.4215 30.8074 16.5586 30.8918L17.3918 31.4262C17.7609 31.6617 18.2355 31.6617 18.6047 31.4262L19.4379 30.8918C19.575 30.8039 22.8023 28.7262 26.0684 25.7133C28.0371 23.8957 29.6227 22.1028 30.7758 20.3836C31.5035 19.2973 32.0766 18.2215 32.4703 17.1844C32.9449 15.9434 33.184 14.7235 33.184 13.5528C33.1875 12.3117 32.9379 11.1059 32.4492 9.97034ZM18 28.6453C18 28.6453 5.48438 20.6262 5.48438 13.5528C5.48438 9.97034 8.44805 7.06643 12.1043 7.06643C14.6742 7.06643 16.9031 8.50081 18 10.5961C19.0969 8.50081 21.3258 7.06643 23.8957 7.06643C27.552 7.06643 30.5156 9.97034 30.5156 13.5528C30.5156 20.6262 18 28.6453 18 28.6453Z" fill="#1890FF"/>
<path d="M23.8957 7.06641C21.3258 7.06641 19.0969 8.50078 18 10.5961C16.9031 8.50078 14.6742 7.06641 12.1043 7.06641C8.44805 7.06641 5.48438 9.97031 5.48438 13.5527C5.48438 20.6262 18 28.6453 18 28.6453C18 28.6453 30.5156 20.6262 30.5156 13.5527C30.5156 9.97031 27.552 7.06641 23.8957 7.06641Z" fill="#E6F7FF"/>
</svg>
