<svg width="36" height="36" viewBox="0 0 36 36" fill="none" xmlns="http://www.w3.org/2000/svg">
<path d="M5.0625 19.1953H12.0938V26.2266H5.0625V19.1953ZM14.4844 9.77344H21.5156V16.8047H14.4844V9.77344Z" fill="#E6F7FF"/>
<path d="M32.2031 7.38281H13.2188C12.5965 7.38281 12.0938 7.88555 12.0938 8.50781V16.8047H3.79688C3.17461 16.8047 2.67188 17.3074 2.67188 17.9297V27.4922C2.67188 28.1145 3.17461 28.6172 3.79688 28.6172H22.7812C23.4035 28.6172 23.9062 28.1145 23.9062 27.4922V19.1953H32.2031C32.8254 19.1953 33.3281 18.6926 33.3281 18.0703V8.50781C33.3281 7.88555 32.8254 7.38281 32.2031 7.38281ZM12.0938 26.2266H5.0625V19.1953H12.0938V26.2266ZM21.5156 26.2266H14.4844V19.1953H21.5156V26.2266ZM21.5156 16.8047H14.4844V9.77344H21.5156V16.8047ZM30.9375 16.8047H23.9062V9.77344H30.9375V16.8047Z" fill="#1890FF"/>
</svg>
