<svg width="36" height="36" viewBox="0 0 36 36" fill="none" xmlns="http://www.w3.org/2000/svg">
<path d="M7.52344 7.97031V23.0031L18 31.1664L28.4766 23.0031V7.97031L18 4.39844L7.52344 7.97031ZM22.2469 11.5316H24.1875C24.416 11.5316 24.5496 11.7918 24.416 11.9781L16.9418 22.2684C16.8893 22.3403 16.8205 22.3988 16.7411 22.4391C16.6616 22.4794 16.5738 22.5005 16.4848 22.5005C16.3957 22.5005 16.3079 22.4794 16.2285 22.4391C16.1491 22.3988 16.0803 22.3403 16.0277 22.2684L11.584 16.1512C11.4504 15.9648 11.584 15.7047 11.8125 15.7047H13.7531C13.9359 15.7047 14.1047 15.7926 14.2102 15.9367L16.4848 19.0691L21.7898 11.7637C21.8953 11.6195 22.0676 11.5316 22.2469 11.5316Z" fill="#E6F7FF"/>
<path d="M30.477 5.97305L18.5309 1.90195C18.3867 1.85273 18.1934 1.82812 18 1.82812C17.8066 1.82812 17.6133 1.85273 17.4691 1.90195L5.52305 5.97305C5.23125 6.07148 4.99219 6.40898 4.99219 6.71836V23.6777C4.99219 23.9871 5.19258 24.3949 5.43516 24.5883L17.5535 34.0312C17.6766 34.1262 17.8348 34.1754 17.9965 34.1754C18.1582 34.1754 18.3199 34.1262 18.4395 34.0312L30.5578 24.5883C30.8004 24.3984 31.0008 23.9906 31.0008 23.6777V6.71836C31.0078 6.40898 30.7688 6.075 30.477 5.97305ZM28.4766 23.0027L18 31.166L7.52344 23.0027V7.96992L18 4.39805L28.4766 7.96992V23.0027Z" fill="#1890FF"/>
<path d="M14.2102 15.9363C14.1047 15.7922 13.936 15.7043 13.7532 15.7043H11.8125C11.584 15.7043 11.4504 15.9645 11.584 16.1508L16.0278 22.268C16.0803 22.3399 16.1491 22.3984 16.2285 22.4387C16.3079 22.4791 16.3957 22.5001 16.4848 22.5001C16.5739 22.5001 16.6617 22.4791 16.7411 22.4387C16.8205 22.3984 16.8893 22.3399 16.9418 22.268L24.416 11.9777C24.5496 11.7914 24.416 11.5312 24.1875 11.5312H22.2469C22.0676 11.5312 21.8953 11.6191 21.7899 11.7633L16.4848 19.0688L14.2102 15.9363Z" fill="#1890FF"/>
</svg>
