<svg width="30" height="30" viewBox="0 0 30 30" fill="none" xmlns="http://www.w3.org/2000/svg">
<path d="M27.9375 0.9375H2.0625C1.44023 0.9375 0.9375 1.44023 0.9375 2.0625V27.9375C0.9375 28.5598 1.44023 29.0625 2.0625 29.0625H27.9375C28.5598 29.0625 29.0625 28.5598 29.0625 27.9375V2.0625C29.0625 1.44023 28.5598 0.9375 27.9375 0.9375ZM26.5312 26.5312H3.46875V3.46875H26.5312V26.5312Z" fill="#1890FF"/>
<path d="M7.71601 15.422H9.49843C9.6285 15.422 9.73749 15.3165 9.73749 15.1829V12.4091C9.73749 11.7165 10.2965 11.1575 10.9855 11.1575H18.2172V13.0349C18.2172 13.2353 18.4457 13.3442 18.6004 13.2212L22.4359 10.2083C22.5589 10.1134 22.5589 9.92706 22.4359 9.83214L18.6004 6.81926C18.4457 6.69621 18.2172 6.80871 18.2172 7.00559V8.88293H10.982C9.04491 8.88293 7.47695 10.4579 7.47695 12.4021V15.1759C7.47695 15.3165 7.58241 15.422 7.71601 15.422ZM7.56835 20.1645L11.4039 23.1774C11.5586 23.3005 11.7871 23.188 11.7871 22.9911V21.1138H19.0187C20.9558 21.1138 22.5238 19.5388 22.5238 17.5946V14.8208C22.5238 14.6907 22.4183 14.5817 22.2847 14.5817H20.5023C20.3722 14.5817 20.2632 14.6872 20.2632 14.8208V17.5946C20.2632 18.2872 19.7043 18.8462 19.0152 18.8462H11.7871V16.9688C11.7871 16.7685 11.5586 16.6595 11.4039 16.7825L7.56835 19.7954C7.44531 19.8833 7.44531 20.0696 7.56835 20.1645Z" fill="#1890FF"/>
</svg>
