<svg width="36" height="36" viewBox="0 0 36 36" fill="none" xmlns="http://www.w3.org/2000/svg">
<path d="M25.0312 10.6875C25.0312 10.8422 24.9047 10.9688 24.75 10.9688H22.7812C22.6266 10.9688 22.5 10.8422 22.5 10.6875V9H13.5V10.6875C13.5 10.8422 13.3734 10.9688 13.2188 10.9688H11.25C11.0953 10.9688 10.9688 10.8422 10.9688 10.6875V9H6.46875V13.7812H29.5312V9H25.0312V10.6875Z" fill="#E6F7FF"/>
<path d="M30.9375 6.46875H25.0312V4.21875C25.0312 4.06406 24.9047 3.9375 24.75 3.9375H22.7812C22.6266 3.9375 22.5 4.06406 22.5 4.21875V6.46875H13.5V4.21875C13.5 4.06406 13.3734 3.9375 13.2188 3.9375H11.25C11.0953 3.9375 10.9688 4.06406 10.9688 4.21875V6.46875H5.0625C4.44023 6.46875 3.9375 6.97148 3.9375 7.59375V30.9375C3.9375 31.5598 4.44023 32.0625 5.0625 32.0625H30.9375C31.5598 32.0625 32.0625 31.5598 32.0625 30.9375V7.59375C32.0625 6.97148 31.5598 6.46875 30.9375 6.46875ZM29.5312 29.5312H6.46875V16.1719H29.5312V29.5312ZM29.5312 13.7812H6.46875V9H10.9688V10.6875C10.9688 10.8422 11.0953 10.9688 11.25 10.9688H13.2188C13.3734 10.9688 13.5 10.8422 13.5 10.6875V9H22.5V10.6875C22.5 10.8422 22.6266 10.9688 22.7812 10.9688H24.75C24.9047 10.9688 25.0312 10.8422 25.0312 10.6875V9H29.5312V13.7812Z" fill="#1890FF"/>
</svg>
