<svg width="32" height="26" viewBox="0 0 32 26" fill="none" xmlns="http://www.w3.org/2000/svg">
<path d="M20.8867 20.5938H26.6875C26.8422 20.5938 26.9688 20.4672 26.9688 20.3125V17.7812C26.9688 17.6266 26.8422 17.5 26.6875 17.5H20.8867C20.732 17.5 20.6055 17.6266 20.6055 17.7812V20.3125C20.6055 20.4672 20.732 20.5938 20.8867 20.5938Z" fill="#1890FF"/>
<path d="M30.625 0.625H1.375C0.752734 0.625 0.25 1.12773 0.25 1.75V24.25C0.25 24.8723 0.752734 25.375 1.375 25.375H30.625C31.2473 25.375 31.75 24.8723 31.75 24.25V1.75C31.75 1.12773 31.2473 0.625 30.625 0.625ZM29.2188 22.8438H2.78125V10.4688H29.2188V22.8438ZM29.2188 7.375H2.78125V3.15625H29.2188V7.375Z" fill="#1890FF"/>
</svg>
