<svg width="36" height="36" viewBox="0 0 36 36" fill="none" xmlns="http://www.w3.org/2000/svg">
<path d="M29.25 2.25H6.75C6.12773 2.25 5.625 2.75273 5.625 3.375V32.625C5.625 33.2473 6.12773 33.75 6.75 33.75H29.25C29.8723 33.75 30.375 33.2473 30.375 32.625V3.375C30.375 2.75273 29.8723 2.25 29.25 2.25ZM20.1094 4.78125H23.4844V12.1605L21.8496 10.9688L20.1094 12.2133V4.78125ZM8.15625 31.2188V4.78125H18V15.2191C18 15.3352 18.0352 15.4512 18.1055 15.5461C18.1482 15.6064 18.2024 15.6577 18.265 15.6969C18.3276 15.7362 18.3974 15.7626 18.4703 15.7747C18.5432 15.7868 18.6178 15.7843 18.6898 15.7674C18.7617 15.7505 18.8296 15.7195 18.8895 15.6762L21.8355 13.5703L24.6973 15.6586C24.7922 15.7289 24.9082 15.7676 25.0277 15.7676C25.3371 15.7676 25.5902 15.5145 25.5902 15.2051V4.78125H27.8402V31.2188H8.15625Z" fill="#1890FF"/>
<path d="M23.4844 12.1605V4.78125H20.1094V12.2133L21.8496 10.9688L23.4844 12.1605Z" fill="#E6F7FF"/>
<path d="M25.5902 4.78125V15.2051C25.5902 15.5145 25.3371 15.7676 25.0277 15.7676C24.9082 15.7676 24.7922 15.7289 24.6973 15.6586L21.8355 13.5703L18.8895 15.6762C18.8296 15.7195 18.7617 15.7505 18.6898 15.7674C18.6178 15.7843 18.5432 15.7868 18.4703 15.7747C18.3974 15.7626 18.3276 15.7362 18.265 15.6969C18.2024 15.6577 18.1482 15.6064 18.1055 15.5461C18.0352 15.4512 18 15.3352 18 15.2191V4.78125H8.15625V31.2188H27.8402V4.78125H25.5902Z" fill="#E6F7FF"/>
</svg>
