<svg width="36" height="36" viewBox="0 0 36 36" fill="none" xmlns="http://www.w3.org/2000/svg">
<path d="M30.375 11.25H23.8078L23.2066 9.56953L22.4016 7.3125H13.5949L12.7898 9.56953L12.1887 11.25H5.625C5.47031 11.25 5.34375 11.3766 5.34375 11.5312V27.5625C5.34375 27.7172 5.47031 27.8438 5.625 27.8438H30.375C30.5297 27.8438 30.6562 27.7172 30.6562 27.5625V11.5312C30.6562 11.3766 30.5297 11.25 30.375 11.25ZM18 24.75C14.8922 24.75 12.375 22.2328 12.375 19.125C12.375 16.0172 14.8922 13.5 18 13.5C21.1078 13.5 23.625 16.0172 23.625 19.125C23.625 22.2328 21.1078 24.75 18 24.75Z" fill="#E6F7FF"/>
<path d="M18 13.5C14.8922 13.5 12.375 16.0172 12.375 19.125C12.375 22.2328 14.8922 24.75 18 24.75C21.1078 24.75 23.625 22.2328 23.625 19.125C23.625 16.0172 21.1078 13.5 18 13.5ZM18 22.5C16.1367 22.5 14.625 20.9883 14.625 19.125C14.625 17.2617 16.1367 15.75 18 15.75C19.8633 15.75 21.375 17.2617 21.375 19.125C21.375 20.9883 19.8633 22.5 18 22.5Z" fill="#1890FF"/>
<path d="M30.375 8.71875H25.5938L24.4547 5.52656C24.376 5.30813 24.2318 5.11932 24.0418 4.98592C23.8517 4.85252 23.6251 4.78105 23.393 4.78125H12.607C12.1324 4.78125 11.707 5.08008 11.5488 5.52656L10.4062 8.71875H5.625C4.07109 8.71875 2.8125 9.97734 2.8125 11.5313V27.5625C2.8125 29.1164 4.07109 30.375 5.625 30.375H30.375C31.9289 30.375 33.1875 29.1164 33.1875 27.5625V11.5313C33.1875 9.97734 31.9289 8.71875 30.375 8.71875ZM30.6562 27.5625C30.6562 27.7172 30.5297 27.8438 30.375 27.8438H5.625C5.47031 27.8438 5.34375 27.7172 5.34375 27.5625V11.5313C5.34375 11.3766 5.47031 11.25 5.625 11.25H12.1887L13.5949 7.3125H22.4016L23.8078 11.25H30.375C30.5297 11.25 30.6562 11.3766 30.6562 11.5313V27.5625Z" fill="#1890FF"/>
</svg>
