<?xml version="1.0" encoding="UTF-8"?>
<svg id="Layer_1" xmlns="http://www.w3.org/2000/svg" version="1.1" viewBox="0 0 101 100">
  <!-- Generator: Adobe Illustrator 29.7.1, SVG Export Plug-In . SVG Version: 2.1.1 Build 8)  -->
  <path d="M80.89,94.82h8.82c1.11,0,2.03-.36,2.74-1.07.71-.71,1.07-1.63,1.07-2.74V9c0-1.11-.36-2.03-1.07-2.74-.71-.72-1.63-1.07-2.74-1.07h-8.82c-1.11,0-2.03.36-2.74,1.07-.71.71-1.07,1.63-1.07,2.74v82.01c0,1.11.36,2.03,1.07,2.74.71.72,1.63,1.07,2.74,1.07ZM22.03,59.3c1.01,0,1.89-.39,2.65-1.16.76-.77,1.14-1.67,1.14-2.68s-.39-1.89-1.16-2.65c-.77-.76-1.67-1.14-2.67-1.14s-1.9.39-2.65,1.16c-.76.77-1.14,1.67-1.14,2.68s.39,1.89,1.16,2.65c.77.76,1.67,1.14,2.68,1.14ZM22.03,77.89c1.01,0,1.89-.39,2.65-1.16.76-.77,1.14-1.67,1.14-2.68s-.39-1.89-1.16-2.65c-.77-.76-1.67-1.14-2.67-1.14s-1.9.39-2.65,1.16c-.76.77-1.14,1.67-1.14,2.68s.39,1.89,1.16,2.65c.77.76,1.67,1.14,2.68,1.14ZM18.2,39.27h44.82v-17.16H18.2v17.16ZM40.63,59.3c1.01,0,1.89-.39,2.65-1.16.76-.77,1.14-1.67,1.14-2.68s-.39-1.89-1.16-2.65c-.77-.76-1.67-1.14-2.67-1.14s-1.9.39-2.65,1.16c-.76.77-1.14,1.67-1.14,2.68s.39,1.89,1.16,2.65c.77.76,1.67,1.14,2.68,1.14ZM40.63,77.89c1.01,0,1.89-.39,2.65-1.16.76-.77,1.14-1.67,1.14-2.68s-.39-1.89-1.16-2.65c-.77-.76-1.67-1.14-2.67-1.14s-1.9.39-2.65,1.16c-.76.77-1.14,1.67-1.14,2.68s.39,1.89,1.16,2.65c.77.76,1.67,1.14,2.68,1.14ZM59.22,59.3c1.01,0,1.89-.39,2.65-1.16.76-.77,1.14-1.67,1.14-2.68s-.39-1.89-1.16-2.65c-.77-.76-1.67-1.14-2.67-1.14s-1.9.39-2.65,1.16c-.76.77-1.14,1.67-1.14,2.68s.39,1.89,1.16,2.65c.77.76,1.67,1.14,2.68,1.14ZM59.22,77.89c1.01,0,1.89-.39,2.65-1.16.76-.77,1.14-1.67,1.14-2.68s-.39-1.89-1.16-2.65c-.77-.76-1.67-1.14-2.67-1.14s-1.9.39-2.65,1.16c-.76.77-1.14,1.67-1.14,2.68s.39,1.89,1.16,2.65c.77.76,1.67,1.14,2.68,1.14ZM72.31,88.62V11.38H11.28c-1.11,0-2.03.36-2.74,1.07-.71.71-1.07,1.63-1.07,2.74v69.61c0,1.11.36,2.03,1.07,2.74.71.72,1.63,1.07,2.74,1.07h61.03ZM80.89,99.59c-2.03,0-3.81-.59-5.35-1.78-1.54-1.19-2.54-2.66-3-4.42H11.28c-2.3,0-4.3-.86-6.01-2.57-1.71-1.71-2.57-3.72-2.57-6.02V15.19c0-2.3.86-4.3,2.57-6.02s3.72-2.57,6.01-2.57h61.25c.46-1.76,1.46-3.23,3-4.42,1.54-1.19,3.32-1.78,5.35-1.78h8.82c2.3,0,4.3.86,6.01,2.57,1.71,1.71,2.57,3.72,2.57,6.02v82.01c0,2.3-.86,4.3-2.57,6.02-1.71,1.71-3.72,2.57-6.01,2.57h-8.82Z"/>
</svg>