<svg width="79" height="71" viewBox="0 0 79 71" fill="none" xmlns="http://www.w3.org/2000/svg">
<path d="M0.87793 70.974V0.140625H37.8977V17.0083H78.1217V70.974H0.87793ZM4.08314 67.7688H17.8248V54.0271H4.08314V67.7688ZM4.08314 50.8219H17.8248V37.1604H4.08314V50.8219ZM4.08314 33.9552H17.8248V20.2135H4.08314V33.9552ZM4.08314 17.0083H17.8248V3.34583H4.08314V17.0083ZM21.03 67.7688H34.6925V54.0271H21.03V67.7688ZM21.03 50.8219H34.6925V37.1604H21.03V50.8219ZM21.03 33.9552H34.6925V20.2135H21.03V33.9552ZM21.03 17.0083H34.6925V3.34583H21.03V17.0083ZM37.8977 67.7688H74.9165V20.2135H37.8977V33.9552H47.8331V37.1604H37.8977V50.8219H47.8331V54.0271H37.8977V67.7688ZM59.0113 37.1604V33.9552H62.2165V37.1604H59.0113ZM59.0113 54.0271V50.8219H62.2165V54.0271H59.0113Z" fill="black"/>
</svg>
