<svg width="67" height="55" viewBox="0 0 67 55" fill="none" xmlns="http://www.w3.org/2000/svg">
<path d="M0.333496 54.5667V48.5406C0.333496 46.7031 0.864051 45.0576 1.92516 43.6042C2.98627 42.1507 4.36162 41.0292 6.0512 40.2396C10.0116 38.466 13.8332 37.125 17.5158 36.2167C21.1977 35.3083 24.8453 34.801 28.4585 34.6948C28.5495 34.9615 28.6752 35.2191 28.8356 35.4677C28.9953 35.7163 29.1581 35.9472 29.3241 36.1604C29.2651 36.4819 29.221 36.7757 29.1918 37.0417C29.1627 37.3069 29.1481 37.5931 29.1481 37.9H28.5387C24.9005 37.9528 21.38 38.392 17.9772 39.2177C14.5745 40.0427 11.0863 41.3181 7.51266 43.0437C6.27378 43.6903 5.30155 44.5035 4.596 45.4833C3.89113 46.4639 3.5387 47.483 3.5387 48.5406V51.3615H36.6554L39.8606 54.5667H0.333496ZM29.5002 24.4135C26.0627 24.4135 23.2002 23.2698 20.9127 20.9823C18.6252 18.6948 17.4814 15.8187 17.4814 12.3542C17.4814 8.89028 18.6252 6.02778 20.9127 3.76667C23.2002 1.50556 26.0627 0.375 29.5002 0.375C32.9377 0.375 35.8002 1.50556 38.0877 3.76667C40.3752 6.02778 41.5189 8.89028 41.5189 12.3542C41.5189 15.8187 40.3752 18.6948 38.0877 20.9823C35.8002 23.2698 32.9377 24.4135 29.5002 24.4135ZM29.5002 21.2083C31.9946 21.2083 34.0873 20.3632 35.7783 18.6729C37.4693 16.9819 38.3147 14.8892 38.3147 12.3948C38.3147 9.90035 37.4693 7.80764 35.7783 6.11667C34.0873 4.42569 31.9946 3.58021 29.5002 3.58021C27.0057 3.58021 24.913 4.42569 23.222 6.11667C21.5311 7.80764 20.6856 9.90035 20.6856 12.3948C20.6856 14.8892 21.5311 16.9819 23.222 18.6729C24.913 20.3632 27.0057 21.2083 29.5002 21.2083ZM52.5606 54.5667L40.221 42.226C39.4252 41.4302 38.8765 40.6007 38.5752 39.7375C38.2731 38.8736 38.122 38.0097 38.122 37.1458C38.122 35.2576 38.7932 33.5757 40.1356 32.1C41.4779 30.6243 43.1998 29.8865 45.3012 29.8865C46.9713 29.8865 48.2838 30.2712 49.2387 31.0406C50.1929 31.8101 51.3002 32.825 52.5606 34.0854C53.7897 32.8569 54.888 31.85 55.8554 31.0646C56.8234 30.2792 58.1578 29.8865 59.8585 29.8865C62.0286 29.8865 63.7616 30.625 65.0574 32.1021C66.3526 33.5792 67.0002 35.2625 67.0002 37.1521C67.0002 38.0375 66.8318 38.9229 66.495 39.8083C66.1588 40.6937 65.6276 41.4997 64.9012 42.226L52.5606 54.5667Z" fill="black"/>
</svg>
