<svg width="30" height="30" viewBox="0 0 30 30" fill="none" xmlns="http://www.w3.org/2000/svg">
<path d="M12.7875 21.3202L22.8952 11.2125L21.5884 9.92887L12.7875 18.7444L8.34525 14.3021L7.07587 15.5857L12.7875 21.3202ZM15.0026 29.25C13.0471 29.25 11.2046 28.876 9.47513 28.128C7.74563 27.38 6.23325 26.3586 4.938 25.0639C3.64275 23.7691 2.62087 22.2574 1.87237 20.5286C1.12412 18.8001 0.75 16.9581 0.75 15.0026C0.75 13.0316 1.124 11.179 1.872 9.44475C2.62 7.7105 3.64137 6.202 4.93612 4.91925C6.23088 3.6365 7.74262 2.62087 9.47137 1.87237C11.1999 1.12412 13.0419 0.75 14.9974 0.75C16.9684 0.75 18.821 1.124 20.5553 1.872C22.2895 2.62 23.798 3.63512 25.0807 4.91738C26.3635 6.19963 27.3791 7.7075 28.1276 9.441C28.8759 11.1745 29.25 13.0266 29.25 14.9974C29.25 16.9529 28.876 18.7954 28.128 20.5249C27.38 22.2544 26.3649 23.7667 25.0826 25.062C23.8004 26.3572 22.2925 27.3791 20.559 28.1276C18.8255 28.8759 16.9734 29.25 15.0026 29.25ZM15 27.5479C18.4922 27.5479 21.4566 26.3259 23.8931 23.8819C26.3296 21.4376 27.5479 18.477 27.5479 15C27.5479 11.5077 26.3296 8.54337 23.8931 6.10687C21.4566 3.67037 18.4922 2.45213 15 2.45213C11.523 2.45213 8.56237 3.67037 6.11812 6.10687C3.67412 8.54337 2.45212 11.5077 2.45212 15C2.45212 18.477 3.67412 21.4376 6.11812 23.8819C8.56237 26.3259 11.523 27.5479 15 27.5479Z" fill="#0382EA"/>
</svg>
