<svg width="14" height="14" viewBox="0 0 14 14" fill="none" xmlns="http://www.w3.org/2000/svg">
<path d="M5.25 3.96515H6.40469V9.25109C6.40469 9.31984 6.46094 9.37609 6.52969 9.37609H7.46719C7.53594 9.37609 7.59219 9.31984 7.59219 9.25109V3.96515H8.75C8.85469 3.96515 8.9125 3.84484 8.84844 3.76359L7.09844 1.54796C7.08674 1.53302 7.0718 1.52094 7.05475 1.51263C7.03769 1.50432 7.01897 1.5 7 1.5C6.98103 1.5 6.96231 1.50432 6.94525 1.51263C6.92819 1.52094 6.91326 1.53302 6.90156 1.54796L5.15156 3.76202C5.0875 3.84484 5.14531 3.96515 5.25 3.96515V3.96515ZM12.7188 8.78234H11.7812C11.7125 8.78234 11.6562 8.83859 11.6562 8.90734V11.3136H2.34375V8.90734C2.34375 8.83859 2.2875 8.78234 2.21875 8.78234H1.28125C1.2125 8.78234 1.15625 8.83859 1.15625 8.90734V12.0011C1.15625 12.2776 1.37969 12.5011 1.65625 12.5011H12.3438C12.6203 12.5011 12.8438 12.2776 12.8438 12.0011V8.90734C12.8438 8.83859 12.7875 8.78234 12.7188 8.78234Z" fill="black" fill-opacity="0.25"/>
</svg>
